<?xml version="1.0" encoding="utf-8"?>
<!-- Generator: Adobe Illustrator 16.0.0, SVG Export Plug-In . SVG Version: 6.00 Build 0)  -->
<!DOCTYPE svg PUBLIC "-//W3C//DTD SVG 1.1//EN" "http://www.w3.org/Graphics/SVG/1.1/DTD/svg11.dtd">
<svg version="1.1" id="Layer_1" xmlns="http://www.w3.org/2000/svg" xmlns:xlink="http://www.w3.org/1999/xlink" x="0px" y="0px"
	 width="128px" height="80px" viewBox="0 0 128 80" enable-background="new 0 0 128 80" xml:space="preserve">
<g>
	<path d="M51.503,68.489c-0.272,0-0.54-0.12-0.723-0.35c-5.585-6.999-7.155-16.59-7.22-16.993
		c-1.401-6.867,0.254-17.385,0.325-17.83c0.082-0.505,0.558-0.85,1.058-0.767c0.504,0.082,0.847,0.555,0.767,1.06
		c-0.017,0.105-1.672,10.631-0.331,17.205c0.022,0.136,1.571,9.561,6.846,16.172c0.317,0.4,0.252,0.981-0.146,1.299
		C51.908,68.423,51.705,68.489,51.503,68.489z"/>
	<path d="M46.854,43.55"/>
	<path d="M48.772,44.135c-0.06,0-0.118-0.006-0.179-0.019c-0.501-0.1-0.828-0.584-0.729-1.084c0.437-2.225-1.388-3.286-1.464-3.329
		c-0.442-0.25-0.604-0.813-0.357-1.255c0.246-0.444,0.802-0.607,1.249-0.364c1.07,0.584,2.949,2.445,2.387,5.304
		C49.591,43.827,49.205,44.135,48.772,44.135z"/>
	<path d="M46.098,43.261c-1.506,0-2.733-1.224-2.733-2.732c0-1.506,1.227-2.733,2.733-2.733c1.508,0,2.734,1.227,2.734,2.733
		C48.832,42.037,47.605,43.261,46.098,43.261z M46.098,39.644c-0.487,0-0.885,0.396-0.885,0.885c0,0.488,0.397,0.885,0.885,0.885
		c0.488,0,0.886-0.397,0.886-0.885C46.984,40.04,46.586,39.644,46.098,39.644z"/>
	<path d="M58.81,58.522c-0.236,0-0.472-0.091-0.652-0.271c-4.425-4.424-3.442-10.311-3.397-10.559
		c0.089-0.503,0.568-0.837,1.071-0.747c0.502,0.088,0.837,0.566,0.749,1.066l0,0c-0.01,0.052-0.844,5.204,2.884,8.932
		c0.361,0.361,0.361,0.946,0,1.308C59.283,58.432,59.046,58.522,58.81,58.522z"/>
	<path d="M56.165,73.847c-1.583,0-2.872-1.289-2.872-2.874c0-1.582,1.289-2.871,2.872-2.871c1.585,0,2.874,1.289,2.874,2.871
		C59.039,72.558,57.75,73.847,56.165,73.847z M56.165,69.947c-0.564,0-1.023,0.461-1.023,1.025c0,0.565,0.459,1.024,1.023,1.024
		c0.566,0,1.025-0.459,1.025-1.024C57.19,70.408,56.731,69.947,56.165,69.947z"/>
	<path d="M56.148,77.634c-0.247,0-0.433-0.018-0.538-0.029c-3.171-0.042-5.938-3.092-5.938-6.563c0-1.395,0.491-2.756,1.384-3.832
		c1.145-1.381,2.828-2.169,4.621-2.169c1.202,0,2.362,0.352,3.354,1.021c0.425,0.287,0.535,0.861,0.25,1.284
		c-0.286,0.425-0.861,0.533-1.283,0.25c-0.686-0.465-1.487-0.708-2.32-0.708c-1.24,0-2.406,0.548-3.198,1.504
		c-0.618,0.743-0.958,1.687-0.958,2.65c0,2.227,1.778,4.713,4.157,4.713c0.054,0,0.109,0.006,0.163,0.015
		c0.047,0.01,1.388,0.208,2.758-0.834c1.856-1.411,2.897-1.387,3.456-1.374l0.096,0.003c0.51,0,0.924,0.413,0.924,0.926
		c0,0.509-0.414,0.922-0.924,0.922h-0.139c-0.354-0.01-0.953-0.025-2.296,0.996C58.334,77.457,56.934,77.634,56.148,77.634z"/>
	<path d="M62.15,79.313h-1.392c-3.013,0-4.042-2.127-4.085-2.218c-0.217-0.461-0.018-1.013,0.445-1.229
		c0.459-0.215,1.003-0.021,1.223,0.433c0.036,0.07,0.636,1.166,2.417,1.166h1.392c0.51,0,0.924,0.413,0.924,0.926
		C63.074,78.899,62.66,79.313,62.15,79.313z"/>
	<path d="M63.683,79.313h-1.392c-0.512,0-0.925-0.413-0.925-0.922c0-0.513,0.413-0.926,0.925-0.926h1.392
		c1.8,0,2.392-1.12,2.417-1.166c0.228-0.451,0.78-0.639,1.232-0.419c0.452,0.224,0.648,0.761,0.435,1.215
		C67.725,77.186,66.693,79.313,63.683,79.313z"/>
	<path d="M32.881,51.622c-2.38,0-4.698-0.218-6.551-0.457l-0.185-0.025c-1.176-0.129-1.602-1.088-1.602-1.696
		c0-0.126,0.025-0.25,0.075-0.364c0.856-2.007,1.915-3.878,3.152-5.56c6.54-8.92,16.184-10.331,16.668-10.179l-0.288,0.878
		l0.115,0.917c-0.088,0.012-8.972,1.249-15.006,9.474c-1.052,1.435-1.97,3.02-2.732,4.716l0.042,0.003
		c3.224,0.425,13.945,1.471,16.538-2.832c0.262-0.44,0.832-0.578,1.268-0.316c0.437,0.262,0.578,0.831,0.314,1.269
		C42.704,50.746,37.668,51.622,32.881,51.622z"/>
	<path d="M35.608,48.389c-0.158,0-0.316-0.003-0.475-0.012c-4.438-0.227-7.219-3.586-7.336-3.73
		c-0.322-0.395-0.263-0.976,0.135-1.298c0.395-0.322,0.976-0.263,1.298,0.132l0,0c0.023,0.027,2.406,2.878,6.017,3.053
		c2.591,0.124,5.242-1.137,7.86-3.755c0.361-0.361,0.946-0.361,1.307,0c0.362,0.358,0.362,0.946,0,1.306
		C41.556,46.942,38.596,48.389,35.608,48.389z"/>
	<path d="M30.857,36.069c-0.002,0-0.002,0-0.002,0c-15.076-0.001-19.196-11.642-19.236-11.76C9.624,18.615,9.684,13.577,11.8,9.345
		c3.182-6.364,9.822-8.526,10.102-8.614c0.4-0.127,0.833,0.032,1.059,0.384c0.226,0.353,0.184,0.813-0.099,1.121
		c-7.898,8.624-4.668,15.37-4.527,15.653c1.499,3,4.912,8.024,10.937,8.024c2.61,0,5.492-0.934,8.564-2.778
		c9.45-5.671,11.53-7.417,11.55-7.433c0.034-0.029,0.073-0.059,0.11-0.082c2.282-1.434,4.496-2.161,6.579-2.161
		c5.915,0,8.647,5.682,8.76,5.925c0.06,0.122,0.089,0.256,0.089,0.392v10.639c0,0.336-0.183,0.645-0.475,0.808
		c-0.292,0.164-0.65,0.155-0.935-0.022c-2.828-1.744-5.294-2.592-7.538-2.592c-2.897,0-5.415,1.388-8.407,3.201
		c-5.395,3.272-12.543,3.993-12.845,4.023C33.415,35.988,32.105,36.069,30.857,36.069z M18.898,4.283
		c-1.875,1.216-4.066,3.12-5.453,5.906c-1.876,3.765-1.903,8.313-0.079,13.518c0.15,0.437,3.776,10.513,17.488,10.514
		c0,0,0,0,0.002,0c1.177,0,2.411-0.077,3.67-0.228c0.09-0.009,7.058-0.715,12.086-3.765c3.241-1.966,5.989-3.47,9.365-3.47
		c2.199,0,4.534,0.673,7.099,2.053v-8.813c-0.465-0.857-2.782-4.692-7-4.692c-1.715,0-3.581,0.621-5.544,1.846
		c-0.403,0.33-2.847,2.229-11.744,7.567c-3.365,2.019-6.565,3.041-9.516,3.041c-7.019,0.002-10.9-5.664-12.588-9.042
		C16.54,18.437,13.538,12.328,18.898,4.283z"/>
	<path d="M76.498,68.489c-0.202,0-0.406-0.066-0.575-0.204c-0.399-0.317-0.465-0.898-0.146-1.299
		c5.284-6.62,6.823-16.036,6.838-16.129c1.35-6.617-0.308-17.143-0.324-17.248c-0.08-0.505,0.262-0.978,0.768-1.06
		c0.503-0.083,0.977,0.262,1.058,0.767c0.071,0.444,1.728,10.962,0.319,17.868c-0.058,0.365-1.628,9.956-7.213,16.955
		C77.038,68.369,76.771,68.489,76.498,68.489z"/>
	<path d="M81.149,43.55"/>
	<path d="M79.23,44.135c-0.434,0-0.82-0.308-0.906-0.747c-0.563-2.859,1.314-4.72,2.386-5.304c0.447-0.244,1.009-0.08,1.254,0.369
		c0.243,0.446,0.08,1.005-0.364,1.25c-0.089,0.051-1.898,1.11-1.462,3.329c0.098,0.5-0.229,0.984-0.729,1.084
		C79.348,44.129,79.288,44.135,79.23,44.135z"/>
	<path d="M81.902,43.261c-1.505,0-2.732-1.224-2.732-2.732c0-1.506,1.228-2.733,2.732-2.733c1.507,0,2.734,1.227,2.734,2.733
		C84.637,42.037,83.409,43.261,81.902,43.261z M81.902,39.644c-0.487,0-0.882,0.396-0.882,0.885c0,0.488,0.395,0.885,0.882,0.885
		c0.488,0,0.886-0.397,0.886-0.885C82.788,40.04,82.391,39.644,81.902,39.644z"/>
	<path d="M69.192,58.522c-0.237,0-0.474-0.091-0.654-0.271c-0.361-0.361-0.361-0.946,0-1.308c3.75-3.751,2.893-8.877,2.884-8.929
		c-0.089-0.503,0.245-0.981,0.749-1.069c0.502-0.09,0.981,0.244,1.07,0.747c0.045,0.248,1.028,6.135-3.396,10.559
		C69.665,58.432,69.428,58.522,69.192,58.522z"/>
	<path d="M71.836,73.847c-1.584,0-2.872-1.289-2.872-2.874c0-1.582,1.288-2.871,2.872-2.871s2.872,1.289,2.872,2.871
		C74.708,72.558,73.42,73.847,71.836,73.847z M71.836,69.947c-0.565,0-1.023,0.461-1.023,1.025c0,0.565,0.458,1.024,1.023,1.024
		c0.564,0,1.024-0.459,1.024-1.024C72.86,70.408,72.4,69.947,71.836,69.947z"/>
	<path d="M71.854,77.634c-0.787,0-2.187-0.177-3.569-1.227c-1.341-1.021-1.941-1.006-2.294-0.996h-0.139
		c-0.511,0-0.924-0.413-0.924-0.922c0-0.513,0.413-0.926,0.924-0.926l0.095-0.003c0.563-0.013,1.6-0.037,3.457,1.374
		c1.377,1.048,2.744,0.838,2.757,0.834c0.056-0.009,0.109-0.015,0.165-0.015c2.377,0,4.154-2.486,4.154-4.713
		c0-0.966-0.341-1.907-0.956-2.65c-0.793-0.956-1.96-1.504-3.198-1.504c-0.833,0-1.637,0.243-2.322,0.708
		c-0.422,0.285-0.996,0.172-1.283-0.25c-0.284-0.423-0.174-0.997,0.25-1.284c0.991-0.669,2.151-1.021,3.355-1.021
		c1.791,0,3.476,0.788,4.62,2.169c0.893,1.076,1.382,2.438,1.382,3.832c0,3.472-2.766,6.521-5.937,6.563
		C72.286,77.616,72.1,77.634,71.854,77.634z"/>
	<path d="M67.243,79.313h-1.392c-0.511,0-0.924-0.413-0.924-0.922c0-0.513,0.413-0.926,0.924-0.926h1.392
		c1.8,0,2.393-1.12,2.417-1.166c0.23-0.451,0.781-0.639,1.233-0.419c0.452,0.224,0.647,0.761,0.434,1.215
		C71.285,77.186,70.254,79.313,67.243,79.313z"/>
	<path d="M65.713,79.313h-1.394c-3.013,0-4.042-2.127-4.084-2.218c-0.217-0.461-0.017-1.013,0.444-1.229
		c0.46-0.215,1.004-0.021,1.225,0.433c0.036,0.07,0.635,1.166,2.415,1.166h1.394c0.509,0,0.923,0.413,0.923,0.926
		C66.636,78.899,66.222,79.313,65.713,79.313z"/>
	<path d="M95.121,51.622c-4.788,0-9.822-0.874-11.81-4.173c-0.264-0.438-0.122-1.004,0.314-1.269
		c0.438-0.262,1.004-0.124,1.27,0.316c1.749,2.901,7.93,3.959,16.535,2.835l0.042-0.006c-0.762-1.696-1.678-3.278-2.731-4.716
		c-6.033-8.225-14.916-9.461-15.005-9.474l0.118-0.913l-0.003-0.005l-0.289-0.878c0.492-0.157,10.131,1.261,16.669,10.179
		c1.235,1.682,2.297,3.553,3.151,5.56c0.049,0.114,0.075,0.238,0.075,0.364c0,0.608-0.427,1.567-1.601,1.696l-0.187,0.025
		C99.818,51.404,97.502,51.622,95.121,51.622z"/>
	<path d="M92.391,48.389c-2.985,0-5.945-1.446-8.805-4.305c-0.36-0.359-0.36-0.947,0-1.306c0.359-0.361,0.945-0.361,1.306,0
		c2.628,2.625,5.276,3.888,7.883,3.755c3.624-0.187,5.972-3.022,5.996-3.053c0.321-0.395,0.904-0.454,1.3-0.132
		c0.396,0.322,0.456,0.903,0.134,1.298c-0.116,0.145-2.898,3.504-7.336,3.73C92.71,48.386,92.551,48.389,92.391,48.389z"/>
	<path d="M97.146,36.069c-1.251,0-2.559-0.081-3.89-0.241c-0.282-0.027-7.432-0.747-12.827-4.02c-2.99-1.813-5.51-3.201-8.406-3.201
		c-2.245,0-4.709,0.848-7.537,2.592c-0.286,0.177-0.645,0.186-0.936,0.022c-0.293-0.163-0.475-0.472-0.475-0.808V19.774
		c0-0.135,0.03-0.27,0.088-0.392c0.113-0.243,2.848-5.925,8.763-5.925c2.082,0,4.296,0.728,6.577,2.161
		c0.04,0.024,0.079,0.053,0.115,0.085c0.016,0.013,2.095,1.759,11.546,7.43c3.073,1.844,5.953,2.778,8.564,2.778
		c6.024,0,9.438-5.024,10.936-8.021c0.142-0.286,3.372-7.032-4.527-15.656c-0.28-0.308-0.321-0.768-0.097-1.121
		c0.226-0.352,0.661-0.509,1.058-0.384c0.283,0.088,6.921,2.25,10.102,8.614c2.115,4.232,2.177,9.27,0.179,14.973
		C116.342,24.427,112.224,36.069,97.146,36.069z M72.023,26.759c3.376,0,6.125,1.503,9.367,3.47
		c5.036,3.055,11.992,3.756,12.063,3.762c1.281,0.154,2.518,0.23,3.693,0.23c13.767,0,17.45-10.399,17.486-10.505
		c1.827-5.214,1.801-9.762-0.077-13.527c-1.387-2.786-3.577-4.688-5.452-5.906c5.359,8.045,2.357,14.154,2.21,14.443
		c-1.685,3.37-5.564,9.034-12.584,9.034c-2.949,0-6.151-1.022-9.515-3.041c-8.897-5.338-11.343-7.238-11.746-7.567
		c-1.964-1.225-3.828-1.846-5.542-1.846c-4.218,0-6.535,3.833-7.002,4.692v8.813C67.489,27.432,69.823,26.759,72.023,26.759z"/>
</g>
</svg>
