<?xml version="1.0" encoding="utf-8"?>
<!-- Generator: Adobe Illustrator 16.0.0, SVG Export Plug-In . SVG Version: 6.00 Build 0)  -->
<!DOCTYPE svg PUBLIC "-//W3C//DTD SVG 1.1//EN" "http://www.w3.org/Graphics/SVG/1.1/DTD/svg11.dtd">
<svg version="1.1" id="Layer_1" xmlns="http://www.w3.org/2000/svg" xmlns:xlink="http://www.w3.org/1999/xlink" x="0px" y="0px"
	 width="128px" height="80px" viewBox="0 0 128 80" enable-background="new 0 0 128 80" xml:space="preserve">
<g>
	<path d="M50.513,42.644c-2.565,0-4.653-2.086-4.653-4.653c0-2.565,2.088-4.653,4.653-4.653c2.566,0,4.652,2.087,4.652,4.653
		C55.166,40.557,53.079,42.644,50.513,42.644z M50.513,35.571c-1.333,0-2.419,1.085-2.419,2.419s1.086,2.419,2.419,2.419
		c1.334,0,2.419-1.085,2.419-2.419S51.848,35.571,50.513,35.571z"/>
	<path d="M47.559,61.558c-0.17,0-0.343-0.039-0.506-0.122c-0.55-0.279-0.769-0.951-0.489-1.501c0.434-0.854,0.928-1.638,1.553-2.463
		c0.505-0.664,1.017-1.256,1.558-1.881c1.432-1.653,2.912-3.361,4.311-6.597c3.622-8.373,4.449-19.689,5.053-27.953l0.07-0.967
		c0.68-9.239,4.538-9.354,5.003-9.346l-0.086,2.231c0,0,0.025,0.004,0.068,0c-0.623,0.064-2.332,1.497-2.758,7.278l-0.07,0.967
		c-0.615,8.422-1.458,19.959-5.229,28.676c-1.536,3.55-3.202,5.476-4.671,7.174c-0.518,0.597-1.006,1.161-1.467,1.768
		c-0.544,0.717-0.97,1.392-1.342,2.124C48.358,61.334,47.966,61.558,47.559,61.558z"/>
	<path d="M55.01,75.863c-2.549,0-4.837-1.013-6.617-2.926c-2.112-2.274-3.232-5.57-2.995-8.818c0.132-1.8,0.651-3.453,1.542-4.914
		c0.323-0.526,1.012-0.693,1.535-0.372c0.526,0.319,0.693,1.008,0.372,1.534c-0.704,1.155-1.115,2.473-1.221,3.915
		c-0.19,2.602,0.731,5.335,2.403,7.135c0.939,1.01,2.565,2.213,4.981,2.213c2.857,0,5.179-1.061,6.712-3.066
		c0.031-0.036,0.926-1.163,1.147-2.683c0.09-0.609,0.662-1.034,1.266-0.943c0.611,0.09,1.034,0.657,0.944,1.266
		c-0.314,2.152-1.554,3.684-1.607,3.747C61.551,74.463,58.537,75.863,55.01,75.863z"/>
	<path d="M45.707,9.176c-0.34,0-0.675-0.154-0.895-0.447c-0.371-0.493-0.271-1.193,0.223-1.563
		c9.413-7.061,18.673-6.394,19.063-6.361c0.615,0.05,1.072,0.589,1.022,1.204c-0.051,0.614-0.58,1.075-1.202,1.022l0,0
		c-0.089-0.008-8.837-0.609-17.542,5.921C46.174,9.103,45.939,9.176,45.707,9.176z"/>
	<path d="M64.019,68.604c-2.21,0-4.53-1.053-6.207-2.816c-1.212-1.276-1.871-2.735-1.807-4C56.198,58,60.904,58,64.019,58
		c0.617,0,1.117,0.5,1.117,1.116c0,0.618-0.5,1.117-1.117,1.117c-4.766,0-5.73,0.611-5.784,1.667
		c-0.032,0.637,0.426,1.537,1.197,2.349c0.974,1.024,2.691,2.121,4.587,2.121c0.617,0,1.117,0.5,1.117,1.116
		C65.136,68.104,64.635,68.604,64.019,68.604z"/>
	<path d="M63.239,79.226c-8.096,0-9.919-3.918-9.994-4.09c-0.25-0.564,0.006-1.224,0.57-1.473c0.56-0.246,1.208,0.001,1.464,0.551
		c0.051,0.098,1.653,2.989,8.693,2.767c0.601-0.014,1.131,0.466,1.15,1.082c0.02,0.616-0.465,1.131-1.082,1.15
		C63.767,79.222,63.5,79.226,63.239,79.226z"/>
	<path d="M34.306,73.738L34.306,73.738c-2.315,0-4.216-1.777-4.296-1.854C10.159,53.896,14.937,39.568,15.15,38.967
		C19.671,25.175,30.59,14.49,31.052,14.042c7.758-8.021,11.911-7.939,12.78-7.814c2.122,0.103,3.788,1.792,3.729,3.802
		c-0.004,0.122-0.028,0.243-0.07,0.357l-0.423,1.132c-0.01,0.03-0.023,0.059-0.037,0.088l-2.744,5.788
		c-9.346,17.285-6.932,28.931-5.773,34.526c0.174,0.839,0.324,1.564,0.41,2.177c0.65,4.643,0.485,9.247,0.478,9.44
		c-0.004,0.158-0.125,4.096-0.475,6.61c-0.339,2.455-2.478,3.339-3.636,3.479C34.972,73.701,34.642,73.738,34.306,73.738z
		 M43.393,8.433c-0.637,0-4.145,0.346-10.761,7.188c-0.135,0.131-11.016,10.787-15.368,24.067
		c-0.054,0.154-4.417,13.631,14.263,30.56c0.029,0.025,1.364,1.257,2.779,1.257l0,0c0.18,0,0.357-0.021,0.525-0.063
		c0.054-0.014,0.11-0.022,0.166-0.028c0.147-0.017,1.533-0.213,1.72-1.572c0.333-2.395,0.454-6.339,0.455-6.38
		c0.001-0.054,0.164-4.614-0.458-9.055c-0.076-0.539-0.22-1.231-0.385-2.033c-1.213-5.855-3.738-18.04,5.97-35.989l2.695-5.691
		l0.33-0.886c-0.068-0.733-0.769-1.325-1.637-1.351c-0.071-0.002-0.141-0.011-0.209-0.026C43.498,8.436,43.453,8.433,43.393,8.433z"
		/>
	<path d="M48.28,72.327c-0.244,0-0.491-0.08-0.696-0.244c-0.285-0.228-7.013-5.646-9.973-11.375
		c-0.284-0.546-0.068-1.221,0.48-1.503c0.545-0.283,1.221-0.069,1.504,0.479c2.744,5.312,9.315,10.602,9.382,10.655
		c0.481,0.385,0.56,1.088,0.175,1.569C48.931,72.185,48.607,72.327,48.28,72.327z"/>
	<path d="M77.485,42.644c-2.566,0-4.653-2.086-4.653-4.653c0-2.565,2.087-4.653,4.653-4.653c2.564,0,4.653,2.087,4.653,4.653
		C82.139,40.557,80.05,42.644,77.485,42.644z M77.485,35.571c-1.335,0-2.419,1.085-2.419,2.419s1.084,2.419,2.419,2.419
		c1.333,0,2.419-1.085,2.419-2.419S78.818,35.571,77.485,35.571z"/>
	<path d="M80.439,61.558c-0.406,0-0.799-0.224-0.996-0.612c-0.372-0.732-0.798-1.407-1.342-2.124
		c-0.461-0.606-0.949-1.171-1.467-1.768c-1.471-1.698-3.137-3.624-4.672-7.174c-3.771-8.717-4.614-20.253-5.229-28.676l-0.07-0.967
		c-0.426-5.781-2.136-7.214-2.758-7.278l0.026-1.116l-0.043-1.116c0.454-0.006,4.322,0.106,5.003,9.346l0.07,0.967
		c0.604,8.264,1.431,19.581,5.053,27.952c1.398,3.236,2.879,4.944,4.311,6.598c0.541,0.625,1.053,1.217,1.557,1.881
		c0.625,0.825,1.12,1.608,1.553,2.463c0.281,0.55,0.062,1.222-0.488,1.501C80.783,61.519,80.609,61.558,80.439,61.558z"/>
	<path d="M72.988,75.863c-3.527,0-6.542-1.4-8.487-3.942c-0.029-0.034-1.27-1.565-1.583-3.718c-0.09-0.608,0.333-1.176,0.943-1.266
		c0.609-0.089,1.177,0.333,1.267,0.943c0.223,1.52,1.114,2.642,1.122,2.653c1.56,2.035,3.881,3.096,6.738,3.096
		c2.416,0,4.042-1.203,4.98-2.213c1.673-1.8,2.594-4.533,2.404-7.135c-0.106-1.442-0.518-2.76-1.222-3.915
		c-0.321-0.526-0.153-1.215,0.372-1.534c0.526-0.32,1.213-0.154,1.535,0.372c0.891,1.461,1.41,3.114,1.541,4.914
		c0.238,3.248-0.882,6.544-2.994,8.818C77.826,74.851,75.537,75.863,72.988,75.863z"/>
	<path d="M82.291,9.176c-0.232,0-0.467-0.073-0.668-0.224c-8.706-6.531-17.456-5.929-17.542-5.921
		c-0.618,0.058-1.151-0.41-1.201-1.024c-0.05-0.614,0.407-1.152,1.021-1.202c0.388-0.03,9.648-0.701,19.062,6.361
		c0.494,0.37,0.594,1.07,0.223,1.563C82.967,9.021,82.633,9.176,82.291,9.176z"/>
	<path d="M63.979,68.604c-0.617,0-1.117-0.5-1.117-1.117c0-0.616,0.5-1.116,1.117-1.116c1.896,0,3.613-1.097,4.587-2.121
		c0.771-0.812,1.229-1.712,1.197-2.349c-0.055-1.056-1.018-1.667-5.784-1.667c-0.617,0-1.117-0.499-1.117-1.117
		c0-0.616,0.5-1.116,1.117-1.116c3.114,0,7.821,0,8.015,3.787c0.063,1.265-0.596,2.724-1.808,4
		C68.51,67.551,66.189,68.604,63.979,68.604z"/>
	<path d="M64.759,79.226c-0.26,0-0.526-0.004-0.801-0.013c-0.617-0.02-1.101-0.534-1.082-1.15c0.019-0.616,0.532-1.101,1.15-1.082
		c7.172,0.22,8.671-2.717,8.685-2.746c0.248-0.564,0.906-0.82,1.473-0.571c0.564,0.249,0.82,0.908,0.57,1.473
		C74.678,75.308,72.854,79.226,64.759,79.226z"/>
	<path d="M93.691,73.738c-0.334,0-0.666-0.037-0.984-0.11c-1.16-0.141-3.299-1.024-3.639-3.48c-0.348-2.514-0.469-6.451-0.473-6.618
		c-0.008-0.185-0.172-4.789,0.477-9.432c0.086-0.612,0.236-1.338,0.41-2.177c1.16-5.596,3.572-17.242-5.746-34.474l-2.771-5.84
		c-0.013-0.029-0.026-0.058-0.036-0.088l-0.424-1.132c-0.041-0.115-0.064-0.235-0.069-0.357c-0.058-2.01,1.608-3.699,3.729-3.802
		c0.869-0.125,5.02-0.21,12.805,7.84c0.438,0.422,11.357,11.107,15.887,24.925c0.203,0.575,4.982,14.904-14.889,32.91
		C97.908,71.961,96.008,73.738,93.691,73.738z M83.004,10.693l2.725,5.744c9.68,17.896,7.154,30.081,5.941,35.937
		c-0.166,0.802-0.311,1.494-0.385,2.033c-0.623,4.449-0.461,9.001-0.459,9.046c0.002,0.05,0.123,3.994,0.455,6.388
		c0.188,1.36,1.574,1.557,1.73,1.574c0.049,0.006,0.109,0.017,0.156,0.027c0.166,0.041,0.344,0.063,0.523,0.063
		c1.416,0,2.75-1.231,2.764-1.244c18.793-17.03,14.336-30.415,14.287-30.547c-4.359-13.306-15.242-23.961-15.35-24.068
		c-6.643-6.866-10.15-7.212-10.787-7.212c-0.063,0-0.105,0.002-0.129,0.006c-0.068,0.015-0.094,0.016-0.166,0.018
		c-0.867,0.025-1.568,0.618-1.637,1.351L83.004,10.693z"/>
	<path d="M79.719,72.327c-0.328,0-0.652-0.143-0.873-0.419c-0.385-0.481-0.307-1.184,0.175-1.569
		c0.065-0.054,6.644-5.353,9.382-10.655c0.285-0.547,0.961-0.762,1.506-0.479c0.547,0.282,0.764,0.957,0.479,1.503
		c-2.959,5.729-9.688,11.147-9.972,11.375C80.21,72.247,79.963,72.327,79.719,72.327z"/>
</g>
</svg>
