<?xml version="1.0" encoding="utf-8"?>
<!-- Generator: Adobe Illustrator 16.0.0, SVG Export Plug-In . SVG Version: 6.00 Build 0)  -->
<!DOCTYPE svg PUBLIC "-//W3C//DTD SVG 1.1//EN" "http://www.w3.org/Graphics/SVG/1.1/DTD/svg11.dtd">
<svg version="1.1" id="Layer_1" xmlns="http://www.w3.org/2000/svg" xmlns:xlink="http://www.w3.org/1999/xlink" x="0px" y="0px"
	 width="80px" height="128px" viewBox="0 0 80 128" enable-background="new 0 0 80 128" xml:space="preserve">
<g>
	<path d="M59.488,88.041c-0.525,0-1.03-0.295-1.27-0.802c-0.336-0.701-0.037-1.539,0.663-1.873
		C74.34,78.004,76.19,62.432,76.207,62.275c0.563-8.027-2.343-13.413-7.552-19.985c-5.043-6.365-7.084-13.901-7.168-14.219
		c-2.274-7-6.299-11.3-6.339-11.343c-6.222-6.844-14.871-6.022-14.959-6.012c-0.048,0.005-0.097,0.008-0.146,0.008
		s-0.187-0.003-0.234-0.008c-0.088-0.008-8.771-0.796-14.94,5.991c-0.059,0.063-4.097,4.4-6.381,11.437
		c-0.062,0.245-2.103,7.781-7.146,14.146c-5.209,6.573-8.114,11.958-7.549,20.036c0.013,0.106,1.864,15.679,17.321,23.041
		c0.701,0.334,1,1.172,0.664,1.873c-0.333,0.699-1.171,0.998-1.873,0.665C2.988,79.847,1.068,63.271,0.993,62.571
		c-0.631-8.997,2.648-15.093,8.146-22.027c4.684-5.911,6.635-13.122,6.654-13.194c2.513-7.745,6.834-12.362,7.016-12.555
		c6.803-7.483,15.989-6.984,17.178-6.885C40.688,7.846,50.195,7.1,57.21,14.815c0.16,0.171,4.482,4.789,6.974,12.461
		c0.04,0.145,2.006,7.374,6.676,13.267c5.496,6.935,8.776,13.03,8.148,21.979c-0.078,0.75-1.999,17.325-18.917,25.382
		C59.896,87.997,59.689,88.041,59.488,88.041z"/>
	<path d="M40.113,120.139c-0.009,0-0.017,0-0.026,0l-4.528-0.078c-0.042-0.001-0.084-0.005-0.125-0.008
		c-3.225-0.347-4.746-1.094-5.23-1.383c-8.88-3.92-10.972-8.035-11.393-9.149c-2.372-3.667-1.751-8.642-1.724-8.854
		c0.061-0.337,4.92-26.415,7.206-36.673c1.003-4.504,2.599-7.47,4.743-8.814c1.241-0.78,2.303-0.782,2.793-0.726
		c2.989-0.071,4.654,3.048,6.246,6.083l0.238,0.452c0.739,1.406,1.393,1.751,1.611,1.773c0.701-0.135,1.405,0.276,1.614,0.976
		c0.223,0.744-0.198,1.527-0.94,1.751c-0.276,0.081-2.729,0.689-4.772-3.19l-0.239-0.457c-1.203-2.293-2.482-4.655-3.734-4.575
		c-0.139,0.009-0.278-0.002-0.414-0.034c0.038,0.01-2.706-0.232-4.401,7.373c-2.274,10.211-7.125,36.238-7.175,36.5l0,0
		c0,0-0.5,4.224,1.382,6.998c0.086,0.124,0.15,0.263,0.19,0.408c0.004,0.009,1.349,3.831,9.992,7.626
		c0.082,0.035,0.159,0.078,0.23,0.128v-0.001c0,0,1.124,0.668,4.014,0.985l4.466,0.078c0.776,0.014,1.394,0.653,1.381,1.43
		C41.503,119.524,40.878,120.139,40.113,120.139z"/>
	<path d="M39.886,120.139c-0.765,0-1.391-0.614-1.406-1.381c-0.013-0.776,0.606-1.416,1.382-1.43l4.474-0.078
		c2.546-0.244,3.666-0.688,3.678-0.692c8.742-3.838,10.578-8.136,10.595-8.179c0.037-0.091,0.092-0.195,0.146-0.275
		c1.889-2.786,1.374-7.032,1.368-7.074c-0.036-0.193-4.751-26.238-7.158-36.406c-1.526-6.446-3.684-7.537-4.364-7.401
		c-0.164,0.077-0.127,0.047-0.283,0.047c-0.011,0-0.022,0-0.035,0c-1.479,0.043-2.287,1.485-3.591,4.029
		c-0.169,0.328-0.341,0.663-0.519,1c-2.042,3.88-4.496,3.272-4.771,3.19c-0.743-0.224-1.164-1.007-0.94-1.751
		c0.208-0.699,0.914-1.111,1.615-0.976c0.218-0.022,0.871-0.368,1.61-1.773c0.174-0.328,0.34-0.653,0.502-0.972
		c1.355-2.644,2.754-5.376,5.859-5.551c0.471-0.093,1.475-0.167,2.673,0.506c2.178,1.219,3.854,4.249,4.98,9.003
		c2.424,10.242,7.153,36.362,7.2,36.624c0.039,0.28,0.663,5.3-1.745,8.971c-0.447,0.976-2.966,5.591-12.037,9.572
		c-0.158,0.068-1.531,0.627-4.574,0.913c-0.035,0.003-0.069,0.005-0.106,0.006l-4.527,0.078
		C39.902,120.139,39.893,120.139,39.886,120.139z"/>
	<path d="M45.987,119.084c-0.776,0-1.405-0.629-1.405-1.405c0-6.449-1.873-11.129-4.451-11.129c-2.206,0-4.569,4.471-4.569,11.129
		c0,0.776-0.629,1.405-1.406,1.405c-0.776,0-1.406-0.629-1.406-1.405c0-8.078,3.104-13.939,7.38-13.939
		c4.412,0,7.263,5.472,7.263,13.939C47.394,118.455,46.763,119.084,45.987,119.084z"/>
	<path d="M60.394,48.916c-1.173,0-2.274-0.458-3.105-1.287c-1.711-1.712-1.711-4.499,0-6.212c0.831-0.83,1.936-1.287,3.108-1.287
		s2.275,0.457,3.104,1.287c0.831,0.829,1.288,1.934,1.288,3.106c0,1.174-0.457,2.277-1.288,3.106
		C62.672,48.458,61.569,48.916,60.394,48.916z M60.396,42.941c-0.423,0-0.822,0.165-1.12,0.463c-0.615,0.616-0.615,1.62,0,2.236
		c0.6,0.599,1.64,0.598,2.236,0c0.301-0.299,0.466-0.697,0.466-1.118c0-0.422-0.165-0.819-0.466-1.119
		C61.214,43.105,60.817,42.941,60.396,42.941z"/>
	<path d="M57.401,51.804c-0.523,0-1.024-0.292-1.267-0.794c-2.705-5.594,0.988-9.428,1.148-9.588
		c0.545-0.553,1.437-0.558,1.987-0.012c0.551,0.543,0.558,1.429,0.019,1.981c-0.119,0.126-2.438,2.642-0.623,6.394
		c0.337,0.7,0.045,1.54-0.652,1.878C57.815,51.759,57.606,51.804,57.401,51.804z"/>
	<path d="M19.71,48.916L19.71,48.916c-1.173,0-2.277-0.458-3.106-1.288c-0.829-0.828-1.287-1.931-1.287-3.105
		c0-1.173,0.458-2.277,1.287-3.106c0.829-0.83,1.933-1.287,3.106-1.287c1.173,0,2.275,0.457,3.106,1.286
		c1.713,1.714,1.713,4.501,0,6.213C21.988,48.458,20.884,48.916,19.71,48.916z M19.71,42.941c-0.422,0-0.819,0.164-1.118,0.463
		c-0.298,0.299-0.463,0.696-0.463,1.119c0,0.421,0.165,0.819,0.463,1.117c0.3,0.3,0.696,0.464,1.118,0.464l0,0
		c0.423,0,0.82-0.165,1.119-0.464c0.617-0.616,0.617-1.62,0-2.237C20.531,43.106,20.133,42.941,19.71,42.941z"/>
	<path d="M22.706,51.804c-0.205,0-0.414-0.045-0.611-0.141c-0.699-0.338-0.992-1.178-0.654-1.878
		c1.851-3.826-0.591-6.362-0.617-6.387c-0.546-0.553-0.541-1.443,0.011-1.989c0.552-0.545,1.442-0.541,1.988,0.012
		c0.159,0.16,3.855,3.994,1.149,9.588C23.729,51.512,23.227,51.804,22.706,51.804z"/>
	<path d="M33.721,82.573c-1.809,0-3.172-2.047-3.172-4.763c0-2.717,1.363-4.765,3.172-4.765c0.562,0,1.078,0.211,1.454,0.595
		c0.761,0.779,0.734,1.959,0.703,3.325c-0.007,0.286-0.015,0.586-0.015,0.896c0,0.312,0.007,0.611,0.015,0.894
		c0.031,1.316,0.057,2.455-0.69,3.22C34.919,82.249,34.449,82.573,33.721,82.573z"/>
	<path d="M46.385,82.573c-0.729,0-1.199-0.324-1.467-0.598c-0.746-0.765-0.721-1.903-0.689-3.22
		c0.007-0.282,0.015-0.583,0.015-0.895c0-0.31-0.008-0.609-0.015-0.896c-0.031-1.365-0.059-2.545,0.703-3.324
		c0.375-0.384,0.891-0.595,1.453-0.595c1.808,0,3.172,2.048,3.172,4.765C49.557,80.526,48.192,82.573,46.385,82.573z"/>
</g>
</svg>
