<?xml version="1.0" encoding="utf-8"?>
<!-- Generator: Adobe Illustrator 16.0.0, SVG Export Plug-In . SVG Version: 6.00 Build 0)  -->
<!DOCTYPE svg PUBLIC "-//W3C//DTD SVG 1.1//EN" "http://www.w3.org/Graphics/SVG/1.1/DTD/svg11.dtd">
<svg version="1.1" id="Layer_1" xmlns="http://www.w3.org/2000/svg" xmlns:xlink="http://www.w3.org/1999/xlink" x="0px" y="0px"
	 width="80px" height="128px" viewBox="0 0 80 128" enable-background="new 0 0 80 128" xml:space="preserve">
<g>
	<path d="M27.574,53.403c-1.733,0-3.142-1.409-3.142-3.142s1.409-3.143,3.142-3.143c1.732,0,3.143,1.41,3.143,3.143
		S29.306,53.403,27.574,53.403z M27.574,48.833c-0.788,0-1.428,0.641-1.428,1.428c0,0.787,0.641,1.428,1.428,1.428
		c0.787,0,1.428-0.641,1.428-1.428C29.002,49.474,28.36,48.833,27.574,48.833z"/>
	<path d="M29.088,77.37c-0.391,0-0.742-0.059-1.015-0.142c-1.529-0.325-2.62-0.991-3.246-1.982
		c-0.783-1.238-0.511-2.482-0.478-2.621c0.032-0.172,0.994-5.191,1.174-6.014c0.033-0.157,0.013-0.244-0.006-0.273
		c-0.024-0.02-0.049-0.039-0.071-0.061c-4.662-4.352-7.038-10.489-6.518-16.838c0.418-5.106,2.7-9.855,6.426-13.37
		c0.345-0.324,0.887-0.309,1.211,0.036c0.325,0.344,0.31,0.887-0.035,1.211c-3.418,3.224-5.51,7.579-5.894,12.263
		c-0.475,5.806,1.689,11.419,5.941,15.409c0.37,0.285,0.843,0.961,0.62,1.988c-0.175,0.801-1.165,5.961-1.175,6.013
		c-0.012,0.059-0.15,0.724,0.266,1.362c0.378,0.58,1.109,0.986,2.173,1.208c0.03,0.006,0.061,0.014,0.089,0.023
		c0.247,0.074,1.552,0.385,2.25-1.058l0.772-1.758c0.191-0.433,0.697-0.629,1.129-0.438c0.434,0.19,0.631,0.696,0.44,1.129
		l-0.786,1.785C31.549,76.915,30.172,77.37,29.088,77.37z"/>
	<path d="M24.718,74.399c-0.07,0-0.142-0.009-0.212-0.027C11.115,70.961,5.32,57.088,2.536,50.42
		c-0.45-1.076-0.838-2.005-1.152-2.632c-2.056-4.113,0.286-7.443,1.813-8.63c15.352-12.746,22.847-9.601,23.158-9.46
		c0.049,0.022,0.096,0.049,0.141,0.079c0.044,0.032,0.148,0.105,0.312-0.024c6.383-5.121,13.051-4.092,13.333-4.047
		c0.467,0.077,0.783,0.518,0.706,0.985c-0.077,0.467-0.516,0.783-0.983,0.707l0,0c-0.062-0.01-6.218-0.933-11.966,3.679
		c-0.354,0.315-1.318,0.778-2.29,0.168c-0.613-0.21-7.539-2.206-21.337,9.25c-0.153,0.121-3.287,2.661-1.353,6.527
		c0.339,0.679,0.738,1.634,1.2,2.739c2.678,6.411,8.25,19.751,20.813,22.951c0.458,0.117,0.735,0.584,0.618,1.042
		C25.449,74.142,25.1,74.399,24.718,74.399z"/>
	<path d="M13.483,98.419c-0.307,0-0.596-0.164-0.749-0.44c-0.179-0.321-0.133-0.721,0.115-0.992
		C23.053,85.764,24.734,74.764,24.75,74.654c0.067-0.469,0.504-0.791,0.969-0.727c0.469,0.066,0.795,0.502,0.727,0.971
		c-0.06,0.42-1.433,9.397-9.277,19.597c3.048-2.471,7.532-7.604,12.046-18.148c0.186-0.435,0.69-0.637,1.125-0.45
		c0.436,0.186,0.637,0.689,0.451,1.125c-8.383,19.583-16.799,21.32-17.154,21.385C13.584,98.415,13.533,98.419,13.483,98.419z"/>
	<path d="M33.001,102.679c-0.184,0-0.369-0.059-0.526-0.181c-0.374-0.29-0.442-0.829-0.151-1.202
		c0.946-1.217,1.153-3.606,1.153-4.426c1.116-17.876-2.937-27.56-2.977-27.655c-0.186-0.435,0.014-0.938,0.449-1.125
		c0.436-0.188,0.938,0.013,1.125,0.447c0.175,0.404,4.258,10.11,3.116,28.387c0.001,0.091-0.017,3.5-1.513,5.424
		C33.509,102.564,33.255,102.679,33.001,102.679z"/>
	<path d="M44.041,107.928c-1.863,0-3.454-1.183-4.044-2.831c-0.597,1.658-2.182,2.831-4.037,2.831c-2.366,0-4.291-1.906-4.291-4.249
		c0-0.869,0.172-1.579,0.525-2.172c0.243-0.406,0.769-0.538,1.175-0.296c0.406,0.242,0.539,0.769,0.296,1.176
		c-0.19,0.318-0.283,0.741-0.283,1.292c0,1.398,1.155,2.534,2.576,2.534c1.42,0,2.577-1.136,2.577-2.534
		c-0.011-0.214-0.014-1.094,0.502-1.636c0.251-0.264,0.591-0.411,0.958-0.412c0.18-0.001,0.542,0.038,0.886,0.355
		c0.387,0.357,0.583,0.927,0.583,1.692c0,1.398,1.155,2.534,2.576,2.534c1.422,0,2.577-1.136,2.577-2.534
		c0-0.551-0.093-0.974-0.284-1.292c-0.242-0.407-0.109-0.934,0.297-1.176s0.932-0.11,1.176,0.296
		c0.354,0.593,0.525,1.303,0.525,2.172C48.332,106.021,46.407,107.928,44.041,107.928z"/>
	<path d="M52.428,53.403c-1.734,0-3.143-1.409-3.143-3.142s1.408-3.143,3.143-3.143c1.73,0,3.143,1.41,3.143,3.143
		S54.158,53.403,52.428,53.403z M52.428,48.833c-0.789,0-1.428,0.641-1.428,1.428c0,0.787,0.639,1.428,1.428,1.428
		c0.787,0,1.428-0.641,1.428-1.428C53.855,49.474,53.215,48.833,52.428,48.833z"/>
	<path d="M50.906,77.371c-1.08,0-2.451-0.45-3.25-2.099l-0.799-1.814c-0.191-0.433,0.007-0.938,0.439-1.129
		c0.432-0.191,0.939,0.006,1.129,0.438l0.785,1.786c0.727,1.497,2.178,1.051,2.238,1.029c0.029-0.01,0.059-0.018,0.09-0.023
		c1.064-0.222,1.795-0.628,2.172-1.208c0.416-0.639,0.279-1.304,0.273-1.332c-0.018-0.082-1.006-5.242-1.18-6.043
		c-0.225-1.027,0.25-1.703,0.619-1.988c4.252-3.989,6.414-9.603,5.939-15.409c-0.383-4.684-2.477-9.039-5.893-12.263
		c-0.346-0.325-0.361-0.867-0.037-1.211c0.326-0.344,0.867-0.36,1.213-0.036c3.725,3.515,6.008,8.264,6.426,13.37
		c0.52,6.349-1.855,12.486-6.518,16.838c-0.023,0.021-0.047,0.041-0.072,0.061c-0.018,0.029-0.039,0.116-0.004,0.273
		c0.178,0.822,1.143,5.842,1.182,6.055c0.025,0.098,0.297,1.342-0.486,2.58c-0.627,0.991-1.717,1.657-3.246,1.982
		C51.654,77.312,51.299,77.37,50.906,77.371z"/>
	<path d="M55.283,74.399c-0.383,0-0.732-0.258-0.83-0.646c-0.117-0.458,0.16-0.925,0.619-1.042
		c12.561-3.199,18.133-16.54,20.813-22.951c0.461-1.105,0.859-2.06,1.199-2.739c1.949-3.898-1.197-6.405-1.33-6.51
		c-13.779-11.438-20.707-9.489-21.363-9.265c-0.971,0.606-1.934,0.145-2.318-0.198c-5.744-4.606-11.873-3.662-11.933-3.651
		c-0.467,0.077-0.909-0.238-0.985-0.706c-0.077-0.467,0.24-0.908,0.706-0.985c0.28-0.046,6.95-1.075,13.317,4.033
		c0.18,0.143,0.283,0.069,0.328,0.038c0.043-0.03,0.092-0.057,0.141-0.079c0.313-0.14,7.805-3.287,23.18,9.478
		c1.504,1.169,3.846,4.5,1.791,8.613c-0.314,0.627-0.703,1.556-1.152,2.632c-2.785,6.668-8.58,20.541-21.971,23.952
		C55.424,74.391,55.352,74.399,55.283,74.399z"/>
	<path d="M66.518,98.419c-0.053,0-0.105-0.004-0.16-0.015c-0.354-0.067-8.764-1.875-17.146-21.455
		c-0.188-0.435,0.016-0.938,0.449-1.125c0.436-0.187,0.939,0.016,1.125,0.451c4.482,10.466,8.934,15.623,11.982,18.135
		c-7.787-10.163-9.152-19.093-9.213-19.512c-0.066-0.468,0.258-0.902,0.727-0.97c0.467-0.064,0.902,0.257,0.971,0.725
		c0.016,0.11,1.721,11.137,11.9,22.333c0.248,0.272,0.293,0.674,0.113,0.995C67.111,98.256,66.822,98.419,66.518,98.419z"/>
	<path d="M47,102.679c-0.256,0-0.509-0.114-0.678-0.331c-1.496-1.924-1.514-5.333-1.514-5.478
		c-1.141-18.223,2.943-27.929,3.117-28.333c0.188-0.435,0.691-0.636,1.125-0.447c0.436,0.187,0.635,0.69,0.449,1.125
		c-0.041,0.096-4.094,9.779-2.979,27.603c0.003,0.874,0.213,3.269,1.154,4.479c0.291,0.373,0.223,0.912-0.15,1.202
		C47.369,102.62,47.184,102.679,47,102.679z"/>
	<path d="M35.909,70.103c-0.266,0-0.527-0.121-0.694-0.352c-0.277-0.382-0.198-0.91,0.181-1.19c0.136-0.101,3.388-2.431,9.011-0.236
		c0.44,0.172,0.657,0.668,0.486,1.109c-0.172,0.44-0.668,0.658-1.11,0.486c-4.688-1.828-7.267-0.053-7.375,0.023
		C36.257,70.051,36.082,70.103,35.909,70.103z"/>
	<path d="M37.09,76.999c-0.264,0-0.522-0.12-0.69-0.348c-0.282-0.38-0.201-0.917,0.18-1.198c0.101-0.074,2.521-1.809,6.643-0.2
		c0.441,0.173,0.66,0.669,0.488,1.11c-0.174,0.441-0.67,0.659-1.111,0.487c-3.2-1.25-4.984-0.032-5.001-0.02
		C37.445,76.944,37.266,76.999,37.09,76.999z"/>
	<path d="M37.255,83.524c-0.268,0-0.53-0.122-0.697-0.354c-0.273-0.381-0.195-0.907,0.182-1.186
		c0.096-0.071,2.403-1.727,6.323-0.195c0.441,0.172,0.658,0.669,0.486,1.11c-0.171,0.44-0.668,0.658-1.109,0.486
		c-2.989-1.167-4.622-0.064-4.69-0.017C37.599,83.474,37.426,83.524,37.255,83.524z"/>
	<path d="M37.921,90.357c-0.262,0-0.521-0.12-0.689-0.348c-0.281-0.38-0.201-0.917,0.18-1.198c0.077-0.057,1.911-1.372,4.98-0.174
		c0.44,0.173,0.659,0.668,0.486,1.109c-0.172,0.44-0.669,0.658-1.11,0.487c-2.163-0.846-3.327-0.053-3.337-0.045
		C38.277,90.303,38.099,90.357,37.921,90.357z"/>
	<path d="M37.921,96.755c-0.262,0-0.521-0.12-0.689-0.347c-0.281-0.381-0.201-0.917,0.18-1.199c0.077-0.057,1.911-1.372,4.98-0.174
		c0.44,0.173,0.659,0.669,0.486,1.11c-0.172,0.44-0.669,0.658-1.11,0.486c-2.163-0.845-3.327-0.053-3.337-0.044
		C38.277,96.7,38.099,96.755,37.921,96.755z"/>
</g>
</svg>
