<?xml version="1.0" encoding="utf-8"?>
<!-- Generator: Adobe Illustrator 16.0.0, SVG Export Plug-In . SVG Version: 6.00 Build 0)  -->
<!DOCTYPE svg PUBLIC "-//W3C//DTD SVG 1.1//EN" "http://www.w3.org/Graphics/SVG/1.1/DTD/svg11.dtd">
<svg version="1.1" id="Layer_1" xmlns="http://www.w3.org/2000/svg" xmlns:xlink="http://www.w3.org/1999/xlink" x="0px" y="0px"
	 width="128px" height="80px" viewBox="0 0 128 80" enable-background="new 0 0 128 80" xml:space="preserve">
<g>
	<path d="M33.389,30.792c-0.117,0-0.235-0.016-0.354-0.049C26.538,28.913,22,22.917,22,16.16c0-8.353,6.796-15.148,15.148-15.148
		c7.321,0,13.587,5.219,14.901,12.41c0.128,0.705-0.34,1.381-1.045,1.511c-0.707,0.127-1.381-0.339-1.51-1.044
		c-1.089-5.957-6.281-10.28-12.347-10.28c-6.92,0-12.551,5.631-12.551,12.551c0,5.599,3.76,10.567,9.143,12.084
		c0.689,0.194,1.092,0.911,0.897,1.601C34.477,30.417,33.955,30.792,33.389,30.792z"/>
	<path d="M33.47,24.653c-5.876,0-10.658-4.781-10.658-10.658c0-5.876,4.781-10.658,10.658-10.658s10.657,4.781,10.657,10.658
		C44.127,19.873,39.346,24.653,33.47,24.653z M33.47,5.935c-4.445,0-8.061,3.616-8.061,8.061s3.616,8.061,8.061,8.061
		c4.444,0,8.061-3.616,8.061-8.061S37.914,5.935,33.47,5.935z"/>
	<path d="M33.578,18.54c-2.326,0-4.22-1.893-4.22-4.22c0-2.327,1.894-4.22,4.22-4.22c2.327,0,4.22,1.893,4.22,4.22
		C37.798,16.647,35.904,18.54,33.578,18.54z M33.578,12.698c-0.894,0-1.623,0.728-1.623,1.623c0,0.896,0.729,1.623,1.623,1.623
		c0.895,0,1.623-0.728,1.623-1.623C35.201,13.426,34.472,12.698,33.578,12.698z"/>
	<path d="M63.911,78.988c-0.032,0-0.063-0.002-0.096-0.004c-35.922-2.673-54.09-30.401-54.2-30.678
		c-0.458-1.145-0.081-2.204,0-2.404c4.521-10.353,12.384-19.201,12.717-19.572c0.808-0.913,1.637-1.815,2.457-2.678
		c0.492-0.52,1.314-0.542,1.834-0.048c0.521,0.494,0.542,1.315,0.049,1.835c-0.8,0.843-1.607,1.723-2.4,2.617
		c-0.083,0.093-7.927,8.923-12.26,18.848c0,0.009-0.047,0.213-0.002,0.388c0.766,1.195,17.909,26.567,51.999,29.102
		c0.715,0.054,1.251,0.676,1.199,1.391C65.154,78.468,64.586,78.988,63.911,78.988z"/>
	<path d="M48.276,8.975c-0.492,0-0.962-0.281-1.18-0.756c-0.3-0.651-0.015-1.422,0.637-1.722C57.394,2.05,63.75,2.509,64.016,2.531
		c0.715,0.059,1.248,0.685,1.188,1.4c-0.057,0.713-0.673,1.254-1.396,1.188c-0.072-0.005-6.017-0.394-14.989,3.736
		C48.643,8.936,48.459,8.975,48.276,8.975z"/>
	<path d="M63.911,63.407c-14.488,0-25.472-5.786-33.493-10.013c-2.1-1.106-3.914-2.062-5.556-2.796
		c-7.467-3.333-13.171-0.889-13.229-0.862c-0.657,0.29-1.422-0.008-1.713-0.664c-0.289-0.656,0.006-1.422,0.663-1.712
		c0.275-0.123,6.829-2.932,15.337,0.866c1.719,0.769,3.657,1.79,5.708,2.87c7.781,4.099,18.437,9.713,32.282,9.713
		c0.717,0,1.299,0.581,1.299,1.298S64.628,63.407,63.911,63.407z"/>
	<path d="M58.139,50.784c-1.909,0-3.462-1.555-3.462-3.463c0-1.909,1.553-3.462,3.462-3.462s3.462,1.553,3.462,3.462
		C61.602,49.229,60.048,50.784,58.139,50.784z M58.139,46.456c-0.477,0-0.865,0.389-0.865,0.865s0.389,0.866,0.865,0.866
		s0.866-0.39,0.866-0.866S58.616,46.456,58.139,46.456z"/>
	<path d="M94.613,30.792c-0.567,0-1.088-0.375-1.249-0.947c-0.194-0.69,0.208-1.407,0.896-1.601
		c5.384-1.517,9.145-6.485,9.145-12.084c0-6.92-5.632-12.551-12.553-12.551c-6.064,0-11.259,4.323-12.347,10.28
		c-0.129,0.705-0.808,1.169-1.51,1.044c-0.705-0.13-1.173-0.806-1.044-1.511c1.313-7.191,7.58-12.41,14.9-12.41
		c8.354,0,15.149,6.795,15.149,15.148c0,6.757-4.539,12.753-11.037,14.583C94.848,30.775,94.73,30.792,94.613,30.792z"/>
	<path d="M94.531,24.653c-5.875,0-10.657-4.781-10.657-10.658c0-5.876,4.782-10.658,10.657-10.658
		c5.878,0,10.659,4.781,10.659,10.658C105.19,19.873,100.409,24.653,94.531,24.653z M94.531,5.935c-4.443,0-8.06,3.616-8.06,8.061
		s3.616,8.061,8.06,8.061c4.445,0,8.063-3.616,8.063-8.061S98.977,5.935,94.531,5.935z"/>
	<path d="M94.424,18.54c-2.328,0-4.22-1.893-4.22-4.22c0-2.327,1.892-4.22,4.22-4.22c2.327,0,4.22,1.893,4.22,4.22
		C98.644,16.647,96.751,18.54,94.424,18.54z M94.424,12.698c-0.896,0-1.623,0.728-1.623,1.623c0,0.896,0.727,1.623,1.623,1.623
		c0.895,0,1.623-0.728,1.623-1.623C96.047,13.426,95.318,12.698,94.424,12.698z"/>
	<path d="M64.089,78.988c-0.673,0-1.243-0.521-1.293-1.203c-0.053-0.715,0.483-1.337,1.199-1.391
		c34.086-2.534,51.231-27.902,51.998-29.102c0.045-0.175-0.002-0.387-0.026-0.452c-4.308-9.861-12.152-18.69-12.231-18.779
		c-0.797-0.898-1.604-1.779-2.404-2.622c-0.494-0.521-0.471-1.342,0.047-1.835c0.521-0.494,1.344-0.472,1.837,0.048
		c0.819,0.863,1.646,1.766,2.459,2.683c0.329,0.367,8.193,9.214,12.697,19.529c0.096,0.238,0.475,1.298,0.017,2.444
		c-0.109,0.274-18.276,28.003-54.2,30.676C64.154,78.986,64.121,78.988,64.089,78.988z"/>
	<path d="M79.727,8.975c-0.184,0-0.367-0.039-0.543-0.12C70.199,4.72,64.251,5.116,64.192,5.119c-0.71,0.05-1.337-0.479-1.393-1.192
		c-0.058-0.713,0.473-1.337,1.187-1.396c0.263-0.021,6.622-0.482,16.283,3.965c0.653,0.3,0.937,1.071,0.638,1.722
		C80.686,8.694,80.216,8.975,79.727,8.975z"/>
	<path d="M64.09,63.407c-0.717,0-1.298-0.583-1.298-1.3s0.582-1.298,1.298-1.298c13.846,0,24.503-5.614,32.284-9.713
		c2.051-1.08,3.987-2.102,5.707-2.87c8.507-3.798,15.061-0.989,15.337-0.866c0.656,0.29,0.952,1.056,0.662,1.712
		c-0.289,0.655-1.054,0.95-1.708,0.664c-0.104-0.043-5.853-2.431-13.233,0.862c-1.641,0.734-3.454,1.689-5.554,2.796
		C89.564,57.621,78.58,63.407,64.09,63.407z"/>
	<path d="M69.862,50.784c-1.91,0-3.462-1.555-3.462-3.463c0-1.909,1.552-3.462,3.462-3.462c1.908,0,3.463,1.553,3.463,3.462
		C73.325,49.229,71.771,50.784,69.862,50.784z M69.862,46.456c-0.479,0-0.865,0.389-0.865,0.865s0.387,0.866,0.865,0.866
		c0.477,0,0.866-0.39,0.866-0.866S70.339,46.456,69.862,46.456z"/>
</g>
</svg>
