<?xml version="1.0" encoding="utf-8"?>
<!-- Generator: Adobe Illustrator 16.0.0, SVG Export Plug-In . SVG Version: 6.00 Build 0)  -->
<!DOCTYPE svg PUBLIC "-//W3C//DTD SVG 1.1//EN" "http://www.w3.org/Graphics/SVG/1.1/DTD/svg11.dtd">
<svg version="1.1" id="Layer_1" xmlns="http://www.w3.org/2000/svg" xmlns:xlink="http://www.w3.org/1999/xlink" x="0px" y="0px"
	 width="80px" height="128px" viewBox="0 0 80 128" enable-background="new 0 0 80 128" xml:space="preserve">
<g>
	<path d="M39.986,100.625c-0.898,0-1.516-0.416-1.63-0.499l-6.167-4.734c-0.02-0.015-0.038-0.03-0.056-0.046
		c-2.64-2.367-2.384-4.737-2.198-6.468c0.057-0.524,0.105-0.978,0.064-1.333c-0.195-1.648-2.594-7.78-4.614-10.912
		c-2.163-3.352-3.443-7.572-3.496-7.75c-2.211-7.502-1.3-12.771-0.599-15.171c-4.441,0.187-17.44-0.044-20.819-8.727
		c-0.14-0.358-0.049-0.766,0.228-1.032c0.048-0.046,4.909-4.584,11.404-0.651c0.019,0.012,0.038,0.024,0.057,0.037
		c0.11,0.079,2.733,1.942,4.59,3.914c0.567,0.601,1.056,1.262,1.529,1.902c1.01,1.369,1.882,2.55,3.096,2.563
		c0.116,0.001,0.228,0.023,0.331,0.063c0.538-0.027,0.853-0.056,0.875-0.058c0.34-0.035,0.675,0.12,0.873,0.402
		c0.197,0.281,0.227,0.647,0.078,0.958c-0.025,0.053-2.624,5.737,0.184,15.258c0.01,0.037,1.256,4.141,3.27,7.262
		c2.082,3.228,4.66,9.641,4.904,11.72c0.067,0.57,0.005,1.149-0.061,1.762c-0.166,1.531-0.337,3.115,1.549,4.821l6.115,4.694h-0.001
		c0.006,0,0.217,0.123,0.495,0.123c0.526,0,0.952,0.427,0.952,0.952S40.513,100.625,39.986,100.625z M2.523,44.93
		c2.629,5.41,10.347,6.653,15.407,6.863c-0.417-0.472-0.801-0.993-1.181-1.508c-0.438-0.594-0.892-1.208-1.382-1.727
		c-1.631-1.73-4.001-3.447-4.279-3.646C6.953,42.425,3.725,44.095,2.523,44.93z"/>
	<path d="M1.314,44.458"/>
	<path d="M40.145,52.324c-0.518,0-0.942-0.416-0.952-0.936l-0.182-10.748c-0.229,0.005-0.502,0.013-0.816,0.023
		c-1.375,0.05-2.121-0.682-2.396-1.175c-0.228-0.338-1.338-1.999-1.689-2.662c-0.035-0.066-0.087-0.106-0.155-0.122
		c-1.18,0.261-3.999,0.91-4.831,1.207c-0.537,0.192-0.825,0.514-0.931,0.653l-0.668,3.192c-0.182,1.734-2.347,2.178-2.596,2.223
		c-1.715,0.382-3.479-0.638-3.674-0.755c-0.036-0.021-0.071-0.045-0.103-0.071c-4.358-3.472-10.349-3.361-10.407-3.362
		c-7.063-0.127-8.454,4.7-8.51,4.907c-0.135,0.505-0.654,0.81-1.16,0.677c-0.507-0.133-0.812-0.646-0.683-1.154
		c0.016-0.064,1.716-6.336,10.012-6.336c0.111,0,0.222,0.001,0.335,0.003c0.233-0.006,6.655-0.121,11.542,3.731
		c0.396,0.222,1.45,0.679,2.271,0.495c0.519-0.1,1.068-0.393,1.081-0.566c0.003-0.043,0.01-0.085,0.019-0.127l0.714-3.411
		c0.016-0.08,0.043-0.158,0.079-0.231c0.058-0.116,0.61-1.149,2.039-1.66c1.154-0.412,5.028-1.266,5.191-1.302
		c0.051-0.011,0.102-0.018,0.152-0.021c0.498-0.027,1.458,0.183,1.964,1.139c0.274,0.516,1.258,2.002,1.613,2.531
		c0.05,0.073,0.043,0.041,0.071,0.123c0.002-0.013,0.141,0.172,0.597,0.172c0.02,0,0.039,0,0.058-0.001
		c1.201-0.04,1.806-0.04,1.815-0.04l0,0c0.52,0,0.943,0.416,0.952,0.936l0.198,11.698c0.009,0.525-0.41,0.958-0.936,0.968
		C40.161,52.324,40.151,52.324,40.145,52.324z"/>
	<path d="M39.856,95.154c-0.934,0-5.384-0.205-9.108-3.929c-0.372-0.372-0.372-0.975,0-1.347c0.372-0.371,0.974-0.371,1.346,0
		c2.537,2.537,5.484,3.168,6.941,3.323v-1.698c0-0.525,0.426-0.951,0.952-0.951c0.526,0,0.952,0.426,0.952,0.951v2.697
		c0,0.51-0.401,0.929-0.911,0.95C40.007,95.152,39.949,95.154,39.856,95.154z"/>
	<path d="M37.686,90.116c-0.144,0-0.289-0.032-0.425-0.101c-2.227-1.114-3.227-2.942-3.268-3.019
		c-0.249-0.464-0.074-1.041,0.388-1.289c0.462-0.248,1.038-0.075,1.287,0.385c0.02,0.034,0.792,1.394,2.445,2.22
		c0.47,0.236,0.661,0.808,0.425,1.278C38.372,89.924,38.034,90.116,37.686,90.116z"/>
	<path d="M39.986,110.46c-0.699,0-0.936-0.632-1.05-0.935l-5.54-13.374c-0.201-0.485,0.03-1.042,0.515-1.243
		c0.485-0.201,1.042,0.028,1.244,0.515l5.552,13.403c0.01,0.025,0.027,0.073,0.046,0.118c0.116,0.158,0.185,0.354,0.185,0.563
		C40.938,110.033,40.513,110.46,39.986,110.46z"/>
	<g>
		<path d="M24.188,63.585c-0.656,0-1.304-0.19-1.873-0.55c-1.561-0.989-2.077-2.981-1.151-4.44c0.558-0.88,1.542-1.405,2.632-1.405
			c0.657,0,1.305,0.19,1.872,0.551c0.781,0.494,1.341,1.276,1.536,2.147c0.181,0.804,0.044,1.617-0.384,2.292
			C26.264,63.059,25.28,63.585,24.188,63.585z M23.797,59.093c-0.435,0-0.818,0.195-1.025,0.521
			c-0.363,0.572-0.11,1.385,0.563,1.813c0.655,0.414,1.529,0.286,1.878-0.266c0.156-0.245,0.204-0.549,0.135-0.856
			c-0.087-0.381-0.339-0.729-0.698-0.956C24.387,59.181,24.092,59.093,23.797,59.093z"/>
		<path d="M27.184,64.756c-0.025,0-0.05-0.001-0.074-0.003c-0.524-0.041-0.916-0.498-0.876-1.022
			c0.149-1.944-0.234-3.347-1.138-4.171c-1.312-1.195-3.413-0.876-3.433-0.873c-0.517,0.087-1.01-0.259-1.099-0.777
			c-0.088-0.518,0.26-1.01,0.778-1.099c0.123-0.022,3.022-0.493,5.035,1.341c1.36,1.239,1.95,3.165,1.754,5.724
			C28.093,64.376,27.675,64.756,27.184,64.756z"/>
	</g>
	<path d="M27.375,38.286c-0.414,0-0.794-0.272-0.915-0.689c-0.033-0.116-3.416-11.701-9.786-17.314
		c-0.936-0.723-1.266-1.44-0.933-2.094c0.484-0.952,1.74-0.68,3.094-0.288c0.363,0.106,8.862,2.746,15.51,17.05
		c0.222,0.477,0.015,1.043-0.462,1.264c-0.477,0.221-1.042,0.015-1.264-0.462C27.59,24.931,21.5,21.184,19.221,20.104
		c5.951,6.263,8.937,16.503,9.07,16.967c0.145,0.505-0.147,1.032-0.653,1.177C27.55,38.273,27.462,38.286,27.375,38.286z"/>
	<path d="M40.014,100.625c-0.526,0-0.952-0.426-0.952-0.951s0.426-0.952,0.952-0.952c0.301,0,0.525-0.146,0.528-0.146l6.081-4.671
		c1.885-1.706,1.714-3.29,1.55-4.821c-0.066-0.612-0.128-1.191-0.062-1.762c0.244-2.079,2.822-8.492,4.904-11.72
		c2.019-3.129,3.259-7.225,3.271-7.266c2.805-9.518,0.207-15.201,0.181-15.258c-0.146-0.31-0.115-0.675,0.082-0.955
		s0.529-0.433,0.868-0.401c0.024,0.002,0.34,0.031,0.878,0.058c0.103-0.039,0.213-0.061,0.329-0.063
		c1.214-0.013,2.086-1.194,3.096-2.563c0.473-0.64,0.961-1.301,1.529-1.903c1.858-1.97,4.48-3.834,4.591-3.913
		c0.019-0.013,0.037-0.025,0.057-0.037c6.496-3.935,11.354,0.604,11.403,0.651c0.278,0.266,0.368,0.674,0.229,1.032
		c-3.38,8.682-16.376,8.911-20.819,8.727c0.701,2.4,1.612,7.668-0.598,15.167c-0.056,0.183-1.335,4.403-3.497,7.755
		c-2.02,3.132-4.42,9.264-4.613,10.912c-0.043,0.355,0.007,0.809,0.063,1.333c0.188,1.73,0.442,4.101-2.197,6.468
		c-0.017,0.016-0.035,0.031-0.056,0.046l-6.146,4.72C41.53,100.209,40.912,100.625,40.014,100.625z M68.913,44.912
		c-0.278,0.199-2.648,1.916-4.279,3.646c-0.489,0.519-0.943,1.133-1.382,1.727c-0.379,0.514-0.764,1.034-1.18,1.505
		c5.063-0.212,12.781-1.46,15.406-6.864C76.281,44.082,73.074,42.409,68.913,44.912z"/>
	<path d="M78.686,44.458"/>
	<path d="M78.686,45.41c-0.424,0-0.81-0.284-0.921-0.712c-0.057-0.214-1.438-5.032-8.465-4.906
		c-0.104-0.001-6.11-0.097-10.451,3.362c-0.033,0.026-0.066,0.05-0.103,0.071c-0.197,0.118-1.965,1.136-3.711,0.748
		c-0.214-0.038-2.378-0.481-2.56-2.216l-0.669-3.193c-0.104-0.139-0.386-0.458-0.93-0.652c-0.834-0.298-3.668-0.949-4.841-1.209
		c-0.055,0.015-0.109,0.056-0.145,0.125c-0.352,0.663-1.463,2.323-1.689,2.662c-0.275,0.493-1.04,1.223-2.396,1.175
		c-1.159-0.038-1.742-0.039-1.753-0.039c-0.525,0-0.951-0.426-0.951-0.952s0.425-0.952,0.951-0.952c0,0,0.606,0,1.816,0.04
		c0.514,0.017,0.665-0.193,0.681-0.218c0.018-0.058,0.014-0.042,0.015-0.042c0.003,0,0.009-0.003,0.03-0.034
		c0.356-0.529,1.341-2.015,1.615-2.531c0.507-0.957,1.472-1.167,1.964-1.139c0.051,0.003,0.102,0.009,0.151,0.021
		c0.165,0.036,4.038,0.89,5.192,1.302c1.429,0.511,1.979,1.544,2.037,1.66c0.037,0.073,0.064,0.151,0.081,0.231l0.713,3.411
		c0.009,0.042,0.016,0.084,0.018,0.127c0.014,0.189,0.611,0.48,1.046,0.559c0.859,0.189,1.929-0.273,2.307-0.486
		c4.886-3.854,11.313-3.74,11.586-3.732c8.557-0.146,10.287,6.269,10.304,6.333c0.129,0.51-0.178,1.028-0.688,1.158
		C78.843,45.4,78.764,45.41,78.686,45.41z"/>
	<path d="M40.145,95.154c-0.094,0-0.153-0.002-0.171-0.003c-0.509-0.021-0.912-0.44-0.912-0.95v-2.697
		c0-0.525,0.426-0.951,0.952-0.951c0.526,0,0.952,0.426,0.952,0.951v1.694c1.462-0.16,4.421-0.799,6.941-3.319
		c0.372-0.371,0.974-0.371,1.346,0c0.372,0.372,0.372,0.975,0,1.347C45.529,94.949,41.079,95.154,40.145,95.154z"/>
	<path d="M42.314,90.116c-0.35,0-0.686-0.192-0.853-0.525c-0.234-0.471-0.045-1.042,0.427-1.278
		c1.667-0.832,2.437-2.207,2.444-2.221c0.252-0.457,0.829-0.63,1.289-0.379c0.46,0.25,0.634,0.822,0.386,1.284
		c-0.041,0.076-1.041,1.904-3.269,3.019C42.604,90.084,42.457,90.116,42.314,90.116z"/>
	<path d="M40.014,110.46c-0.526,0-0.952-0.427-0.952-0.952c0-0.21,0.07-0.405,0.185-0.563c0.02-0.045,0.035-0.088,0.035-0.088
		l5.564-13.434c0.2-0.486,0.757-0.715,1.242-0.515c0.486,0.201,0.717,0.758,0.516,1.243l-5.552,13.403
		C40.95,109.828,40.714,110.46,40.014,110.46z"/>
	<g>
		<path d="M55.812,63.585L55.812,63.585c-1.091,0-2.074-0.526-2.632-1.406c-0.428-0.674-0.564-1.487-0.385-2.291
			c0.196-0.871,0.756-1.654,1.537-2.148c0.567-0.36,1.214-0.55,1.872-0.55c1.091,0,2.074,0.525,2.632,1.405
			c0.925,1.459,0.409,3.451-1.15,4.439C57.116,63.395,56.468,63.585,55.812,63.585z M56.204,59.093
			c-0.296,0-0.591,0.088-0.854,0.255c-0.358,0.227-0.612,0.575-0.698,0.956c-0.067,0.307-0.021,0.611,0.134,0.855
			c0.211,0.332,0.584,0.521,1.025,0.521l0,0c0.296,0,0.592-0.088,0.854-0.255c0.674-0.427,0.926-1.24,0.563-1.812
			C57.022,59.288,56.64,59.093,56.204,59.093z"/>
		<path d="M52.817,64.756c-0.492,0-0.909-0.38-0.948-0.879c-0.195-2.559,0.395-4.485,1.755-5.724
			c2.013-1.834,4.912-1.364,5.035-1.341c0.518,0.089,0.866,0.581,0.777,1.099c-0.088,0.517-0.578,0.865-1.096,0.778
			c-0.045-0.008-2.134-0.324-3.444,0.88c-0.898,0.825-1.277,2.226-1.129,4.163c0.04,0.524-0.353,0.981-0.876,1.022
			C52.867,64.754,52.842,64.756,52.817,64.756z"/>
	</g>
	<path d="M52.625,38.286c-0.087,0-0.176-0.012-0.263-0.037c-0.505-0.145-0.798-0.672-0.652-1.177
		c0.132-0.463,3.122-10.717,9.044-16.948c-2.301,1.109-8.39,4.907-13.373,15.628c-0.222,0.477-0.788,0.684-1.264,0.462
		c-0.478-0.221-0.685-0.788-0.463-1.264c6.648-14.304,15.147-16.943,15.506-17.049c1.358-0.393,2.613-0.665,3.098,0.287
		c0.332,0.653,0.004,1.371-0.978,2.132c-6.334,5.582-9.707,17.16-9.74,17.276C53.42,38.014,53.039,38.286,52.625,38.286z"/>
</g>
</svg>
