<?xml version="1.0" encoding="utf-8"?>
<!-- Generator: Adobe Illustrator 16.0.0, SVG Export Plug-In . SVG Version: 6.00 Build 0)  -->
<!DOCTYPE svg PUBLIC "-//W3C//DTD SVG 1.1//EN" "http://www.w3.org/Graphics/SVG/1.1/DTD/svg11.dtd">
<svg version="1.1" id="Layer_1" xmlns="http://www.w3.org/2000/svg" xmlns:xlink="http://www.w3.org/1999/xlink" x="0px" y="0px"
	 width="80px" height="128px" viewBox="0 0 80 128" enable-background="new 0 0 80 128" xml:space="preserve">
<g>
	<path d="M39.793,78.242h-0.505c-0.548,0-0.992-0.444-0.992-0.993c0-0.548,0.444-0.992,0.992-0.992h0.505
		c0.466,0,0.724-0.474,0.733-0.495c1.573-3.011,3.482-3.201,4.508-3.302c0.131-0.013,0.313-0.03,0.368-0.048
		c0.031-0.035,0.075-0.206,0.075-0.323c0-0.167-0.245-0.302-0.247-0.303c-1.229-0.669-4.283-0.855-5.913-0.824
		c-0.008,0.001-0.014,0.001-0.022,0.001c-0.538,0-0.981-0.432-0.991-0.973c-0.011-0.547,0.423-1.001,0.971-1.01
		c0.485-0.011,4.792-0.065,6.833,1.025c0.52,0.252,1.352,0.949,1.352,2.064c0.021,0.614-0.251,1.815-1.408,2.218
		c-0.269,0.091-0.536,0.118-0.822,0.146c-0.833,0.084-1.87,0.188-2.94,2.237C42.014,77.24,41.161,78.242,39.793,78.242z"/>
	<path d="M33.125,73.063c-0.497,0-0.925-0.375-0.983-0.881c-0.03-0.259-0.679-6.407,2.843-13.048
		c0.256-0.484,0.857-0.668,1.342-0.411c0.483,0.256,0.667,0.856,0.411,1.341c-3.238,6.104-2.632,11.838-2.625,11.895
		c0.063,0.545-0.329,1.036-0.873,1.1C33.202,73.061,33.164,73.063,33.125,73.063z"/>
	<path d="M32.263,84.521c-0.202,0-0.405-0.007-0.61-0.02c-2.286-0.145-4.391-1.067-5.93-2.601c-1.571-1.567-2.365-3.582-2.234-5.67
		c0.28-4.49,2.791-5.845,4.845-6.191c0.537-0.092,1.052,0.273,1.144,0.814c0.092,0.539-0.273,1.052-0.814,1.143
		c-1.268,0.214-2.979,0.897-3.195,4.357c-0.094,1.513,0.494,2.984,1.655,4.142c1.196,1.192,2.848,1.913,4.653,2.023
		c3.68,0.236,6.828-2.161,7.025-5.329c0.035-0.548,0.503-0.965,1.053-0.929c0.547,0.034,0.962,0.504,0.928,1.052
		C40.528,81.393,36.765,84.521,32.263,84.521z"/>
	<path d="M47.652,84.521c-4.502,0-8.263-3.129-8.52-7.208c-0.033-0.548,0.384-1.018,0.93-1.052c0.562-0.036,1.017,0.381,1.051,0.929
		c0.197,3.168,3.35,5.561,7.025,5.329c1.805-0.11,3.457-0.831,4.651-2.023c1.163-1.157,1.75-2.629,1.655-4.142
		c-0.216-3.46-1.926-4.144-3.195-4.357c-0.539-0.091-0.903-0.604-0.813-1.143c0.092-0.541,0.606-0.906,1.145-0.814
		c2.056,0.347,4.564,1.701,4.845,6.191c0.132,2.088-0.662,4.103-2.233,5.67c-1.538,1.533-3.644,2.456-5.929,2.601
		C48.058,84.515,47.854,84.521,47.652,84.521z"/>
	<path d="M40.306,78.242H39.8c-1.368,0-2.221-1.002-2.51-1.598c-1.058-2.023-2.096-2.127-2.928-2.211
		c-0.286-0.027-0.555-0.055-0.823-0.146c-1.158-0.402-1.431-1.604-1.408-2.251c-0.001-1.082,0.833-1.78,1.353-2.031
		c2.039-1.091,6.345-1.036,6.831-1.025c0.548,0.009,0.982,0.463,0.974,1.01c-0.012,0.548-0.447,0.996-1.012,0.972
		c-1.188-0.019-4.541,0.078-5.87,0.801c-0.02,0.011-0.04,0.022-0.063,0.032h0.002c0.001,0-0.231,0.13-0.231,0.275
		c0,0.136,0.042,0.307,0.084,0.35c0.046,0.01,0.227,0.027,0.359,0.04c1.027,0.101,2.937,0.291,4.503,3.293
		c0.015,0.03,0.273,0.504,0.74,0.504h0.505c0.548,0,0.991,0.444,0.991,0.992C41.297,77.798,40.854,78.242,40.306,78.242z"/>
	<path d="M46.539,73.063c-0.038,0-0.074-0.002-0.113-0.005c-0.543-0.063-0.935-0.555-0.875-1.098l0,0
		c0.008-0.058,0.599-5.821-2.623-11.896c-0.256-0.484-0.073-1.085,0.413-1.341c0.484-0.257,1.083-0.073,1.339,0.411
		c3.523,6.641,2.874,12.789,2.843,13.048C47.466,72.688,47.037,73.063,46.539,73.063z"/>
	<path d="M39.939,90.875c-5.788,0-9.244-2.602-9.244-6.96c0-0.547,0.444-0.99,0.992-0.99c0.547,0,0.993,0.443,0.993,0.99
		c0,4.33,4.548,4.976,7.259,4.976c3.313,0,7.261-0.863,7.261-4.976c0-0.547,0.444-0.99,0.991-0.99c0.548,0,0.992,0.443,0.992,0.99
		C49.184,88.338,45.813,90.875,39.939,90.875z"/>
	<path d="M27.323,61.622c-2.105,0-3.818-1.713-3.818-3.818c0-1.085,0.464-2.122,1.272-2.846c0.7-0.627,1.605-0.972,2.543-0.972
		c2.109,0,3.822,1.713,3.822,3.817C31.142,59.909,29.429,61.622,27.323,61.622z M27.323,55.971c-0.453,0-0.886,0.165-1.222,0.467
		c-0.389,0.348-0.611,0.846-0.611,1.366c0,1.012,0.822,1.835,1.833,1.835c1.012,0,1.834-0.823,1.834-1.835
		C29.157,56.793,28.334,55.971,27.323,55.971z"/>
	<path d="M30.743,62.99c-0.276,0-0.553-0.114-0.75-0.341l-1.654-1.901c-0.36-0.413-0.316-1.04,0.097-1.399
		c0.414-0.36,1.041-0.316,1.401,0.098l1.653,1.9c0.36,0.414,0.316,1.041-0.097,1.4C31.206,62.91,30.974,62.99,30.743,62.99z"/>
	<path d="M25.317,56.756c-0.277,0-0.553-0.115-0.75-0.341l-1.914-2.199c-0.359-0.413-0.315-1.04,0.099-1.399
		c0.413-0.36,1.04-0.316,1.399,0.097l1.914,2.2c0.36,0.413,0.316,1.039-0.098,1.399C25.78,56.676,25.548,56.756,25.317,56.756z"/>
	<path d="M25.567,73.311c-0.486,0-0.908-0.356-0.98-0.851c-0.011-0.065-0.44-2.346-3.83-5.342
		c-4.202-3.711-7.063-11.115-4.402-18.082c0.195-0.513,0.771-0.768,1.28-0.573c0.513,0.195,0.769,0.77,0.574,1.281
		c-2.315,6.059,0.262,12.707,3.862,15.889c3.975,3.509,4.44,6.253,4.482,6.555c0.072,0.543-0.31,1.041-0.853,1.114
		C25.656,73.308,25.611,73.311,25.567,73.311z"/>
	<g>
		<path d="M13.177,44.737c-0.176,0-0.354-0.047-0.514-0.146c-3.967-2.413-5.461-7.358-3.4-11.259
			c0.966-1.822,2.558-3.118,4.482-3.646c2.083-0.573,4.351-0.206,6.39,1.036c1.245,0.758,2.315,1.8,3.098,3.017
			c0.296,0.46,0.163,1.074-0.298,1.37c-0.459,0.296-1.073,0.164-1.371-0.296c-0.621-0.966-1.473-1.794-2.461-2.396
			c-1.567-0.954-3.281-1.245-4.831-0.819c-1.393,0.384-2.548,1.329-3.256,2.662c-1.571,2.974-0.396,6.768,2.677,8.637
			c0.468,0.285,0.616,0.896,0.332,1.363C13.839,44.566,13.511,44.737,13.177,44.737z"/>
		<path d="M15.975,41.874c-0.168,0-0.337-0.043-0.491-0.131c-1.23-0.703-2.048-1.933-2.189-3.291
			c-0.11-1.05,0.201-2.039,0.875-2.785c0.667-0.739,1.604-1.146,2.642-1.146c0.007,0,0.076,0,0.083,0.001
			c1.426,0.029,2.792,0.835,3.564,2.104c0.235,0.387,0.179,0.884-0.136,1.208l-3.635,3.739
			C16.495,41.771,16.237,41.874,15.975,41.874z M16.851,36.506c-0.509,0-0.924,0.174-1.209,0.49
			c-0.292,0.323-0.424,0.768-0.374,1.252c0.049,0.477,0.271,0.939,0.614,1.307l2.398-2.468c-0.407-0.355-0.918-0.571-1.428-0.581
			H16.851z"/>
	</g>
	<path d="M19.386,32.23c-0.528,0-0.966-0.415-0.991-0.947c-0.024-0.548,0.399-1.012,0.947-1.036
		c1.469-0.066,6.566-3.283,9.717-5.546c0.027-0.021,0.057-0.038,0.085-0.056c3.007-1.724,5.646-2.144,7.842-1.245
		c3,1.229,3.93,4.458,3.969,4.594c0.147,0.528-0.162,1.075-0.688,1.223s-1.074-0.159-1.223-0.685
		c-0.011-0.043-0.734-2.454-2.826-3.301c-1.586-0.644-3.619-0.27-6.043,1.11c-1.442,1.034-8.181,5.771-10.744,5.888
		C19.416,32.229,19.401,32.23,19.386,32.23z"/>
	<path d="M39.89,105.06c-0.208,0-0.416-0.064-0.595-0.199c-6.569-4.937-11.92-9.714-13.88-11.612
		c-0.126,2.205-0.609,3.365-1.442,3.447c-0.376,0.035-1.032-0.07-1.26-1.216c-0.273-1.36-3.938-6.556-9.683-11.22
		c-3.531-2.863-5.551-5.878-6.632-7.92c-0.82,1.514-1.929,2.532-1.999,2.595c-0.37,0.333-0.927,0.344-1.307,0.019
		c-0.38-0.319-0.462-0.874-0.192-1.289C3.3,77.019,2.88,73.418,2,69.955c-0.006-0.022-0.01-0.047-0.016-0.068
		c-3.701-20.64,7.393-29.478,7.868-29.843c0.434-0.335,1.055-0.256,1.391,0.178c0.334,0.433,0.255,1.055-0.177,1.391l0,0
		c-0.106,0.083-10.593,8.522-7.134,27.89c0.31,1.221,0.8,3.358,1.001,5.323c0.177-0.424,0.307-0.877,0.347-1.342
		c0.041-0.475,0.415-0.854,0.889-0.9c0.465-0.053,0.915,0.246,1.05,0.704c0.015,0.045,1.554,4.966,7.061,9.433
		c4.296,3.485,7.512,7.262,9.165,9.858c0.013-0.219,0.02-0.422,0.02-0.6c0-0.119,0.022-0.238,0.063-0.349
		c0.164-0.437,0.558-0.941,1.176-1.052c0.307-0.054,0.911-0.043,1.498,0.645c0.652,0.76,6.622,6.293,14.284,12.052
		c0.439,0.327,0.529,0.95,0.199,1.388C40.49,104.923,40.191,105.06,39.89,105.06z"/>
	<path d="M23.405,42.262c-0.22,0-0.439-0.071-0.623-0.221c-0.426-0.344-0.493-0.969-0.148-1.395
		c2.437-3.017,5.787-3.533,7.967-3.505c-0.411-0.302-0.94-0.602-1.613-0.83c-0.397-0.136-0.667-0.506-0.673-0.926
		c-0.005-0.419,0.253-0.797,0.646-0.943c0.29-0.107,7.134-2.594,11.612,1.642c0.399,0.377,0.416,1.005,0.037,1.403
		c-0.376,0.397-1.004,0.414-1.403,0.038c-2.135-2.021-5.111-2.07-7.173-1.778c0.803,0.654,1.256,1.315,1.46,1.665
		c0.425,0.392,0.37,0.865,0.338,1.019c-0.041,0.188-0.245,0.813-1.174,0.905c-0.11,0.01-0.223,0.003-0.332-0.023
		c-0.205-0.049-5.126-1.161-8.148,2.581C23.981,42.136,23.694,42.262,23.405,42.262z"/>
	<path d="M56.452,42.262c-0.288,0-0.575-0.126-0.772-0.368c-3.042-3.768-8.098-2.594-8.147-2.581
		c-0.109,0.026-0.224,0.033-0.332,0.023c-0.931-0.093-1.134-0.717-1.174-0.905c-0.032-0.153-0.087-0.627,0.338-1.019
		c0.01-0.018,0.021-0.036,0.031-0.055c-0.002-0.112,0.024-0.136,0.074-0.119c0.239-0.37,0.671-0.933,1.356-1.491
		c-2.062-0.292-5.04-0.242-7.176,1.778c-0.397,0.376-1.026,0.359-1.402-0.038c-0.377-0.398-0.359-1.026,0.039-1.403
		c4.476-4.235,11.321-1.749,11.61-1.642c0.394,0.146,0.65,0.524,0.646,0.943c-0.006,0.42-0.275,0.79-0.674,0.926
		c-0.669,0.228-1.198,0.527-1.608,0.83c2.191-0.027,5.528,0.49,7.963,3.505c0.346,0.426,0.278,1.051-0.147,1.395
		C56.892,42.19,56.673,42.262,56.452,42.262z"/>
	<path d="M52.678,61.622c-2.105,0-3.819-1.713-3.819-3.818c0-2.104,1.714-3.817,3.819-3.817c0.942,0,1.846,0.345,2.547,0.972
		c0.807,0.724,1.271,1.761,1.271,2.846C56.496,59.909,54.781,61.622,52.678,61.622z M52.68,55.971c-1.015,0-1.838,0.822-1.838,1.833
		c0,1.012,0.823,1.835,1.836,1.835c1.011,0,1.834-0.823,1.834-1.835c0-0.521-0.224-1.019-0.611-1.366
		C53.564,56.136,53.13,55.971,52.68,55.971z"/>
	<path d="M49.259,62.99c-0.231,0-0.463-0.08-0.651-0.243c-0.413-0.359-0.456-0.986-0.098-1.4l1.655-1.9
		c0.359-0.414,0.985-0.458,1.397-0.098c0.414,0.359,0.457,0.986,0.101,1.399l-1.656,1.901C49.811,62.875,49.535,62.99,49.259,62.99z
		"/>
	<path d="M54.683,56.756c-0.229,0-0.462-0.08-0.649-0.243c-0.413-0.36-0.457-0.986-0.099-1.399l1.915-2.2
		c0.359-0.413,0.984-0.457,1.399-0.097c0.413,0.359,0.457,0.986,0.097,1.399l-1.913,2.199C55.235,56.641,54.96,56.756,54.683,56.756
		z"/>
	<path d="M54.432,73.303c-0.047,0-0.095-0.002-0.145-0.01c-0.535-0.078-0.91-0.567-0.839-1.105c0.039-0.302,0.506-3.046,4.481-6.555
		c3.6-3.182,6.177-9.83,3.863-15.889c-0.196-0.512,0.061-1.086,0.572-1.281c0.513-0.194,1.085,0.062,1.281,0.573
		c2.662,6.967-0.201,14.371-4.403,18.082c-3.423,3.023-3.827,5.322-3.831,5.344C55.335,72.951,54.912,73.303,54.432,73.303z"/>
	<g>
		<path d="M66.823,44.737c-0.334,0-0.661-0.17-0.848-0.477c-0.285-0.468-0.136-1.078,0.333-1.363
			c3.069-1.869,4.245-5.663,2.675-8.638c-0.705-1.332-1.861-2.277-3.254-2.661c-1.548-0.426-3.266-0.135-4.833,0.819
			c-0.988,0.602-1.839,1.43-2.459,2.396c-0.298,0.46-0.913,0.592-1.372,0.296c-0.462-0.296-0.595-0.91-0.298-1.37
			c0.783-1.217,1.854-2.259,3.099-3.017c2.038-1.241,4.308-1.609,6.39-1.036c1.926,0.528,3.517,1.824,4.482,3.646
			c2.06,3.901,0.566,8.847-3.399,11.26C67.177,44.69,66.999,44.737,66.823,44.737z"/>
		<path d="M64.025,41.874c-0.261,0-0.52-0.104-0.712-0.301l-3.634-3.739c-0.316-0.324-0.372-0.821-0.138-1.208
			c0.773-1.27,2.14-2.075,3.564-2.104c0.008-0.001,0.077-0.001,0.083-0.001c1.038,0,1.978,0.407,2.644,1.146
			c0.673,0.746,0.983,1.735,0.874,2.785c-0.141,1.358-0.96,2.588-2.19,3.291C64.363,41.831,64.193,41.874,64.025,41.874z
			 M61.721,37.088l2.398,2.467c0.343-0.367,0.564-0.829,0.614-1.307c0.05-0.484-0.082-0.929-0.375-1.252
			c-0.286-0.317-0.7-0.491-1.169-0.491C62.652,36.516,62.131,36.731,61.721,37.088z"/>
	</g>
	<path d="M60.615,32.23c-0.016,0-0.03-0.001-0.046-0.001c-2.563-0.116-9.302-4.854-10.744-5.888c-2.423-1.38-4.457-1.755-6.043-1.11
		c-2.1,0.851-2.819,3.275-2.827,3.301c-0.151,0.525-0.699,0.833-1.224,0.682c-0.526-0.148-0.833-0.692-0.685-1.22
		c0.038-0.136,0.97-3.364,3.967-4.594c2.195-0.898,4.834-0.48,7.842,1.245c0.03,0.018,0.059,0.035,0.086,0.056
		c3.15,2.263,8.249,5.479,9.719,5.546c0.547,0.024,0.971,0.488,0.944,1.036C61.581,31.815,61.144,32.23,60.615,32.23z"/>
	<path d="M40.111,105.06c-0.302,0-0.599-0.137-0.792-0.397c-0.33-0.438-0.243-1.061,0.195-1.388
		c7.663-5.759,13.632-11.292,14.285-12.052c0.586-0.688,1.191-0.698,1.499-0.645c0.616,0.11,1.012,0.615,1.175,1.052
		c0.042,0.11,0.063,0.229,0.063,0.349c0,0.178,0.008,0.381,0.021,0.6c1.652-2.597,4.869-6.373,9.165-9.858
		c5.54-4.495,7.046-9.386,7.061-9.433c0.135-0.458,0.581-0.757,1.05-0.704c0.474,0.047,0.848,0.426,0.889,0.9
		c0.041,0.465,0.169,0.918,0.348,1.342c0.2-1.965,0.69-4.103,1.001-5.323c3.472-19.441-7.026-27.806-7.133-27.889
		c-0.434-0.335-0.514-0.958-0.179-1.392c0.336-0.434,0.958-0.513,1.393-0.178c0.475,0.365,11.567,9.203,7.864,29.843
		c-0.004,0.021-0.008,0.045-0.014,0.068c-0.878,3.464-1.299,7.066-0.899,7.709c0.264,0.417,0.179,0.974-0.201,1.289
		c-0.38,0.318-0.93,0.313-1.299-0.019c-0.07-0.063-1.18-1.081-2-2.595c-1.08,2.042-3.101,5.057-6.63,7.92
		c-5.747,4.664-9.411,9.859-9.685,11.22c-0.229,1.146-0.888,1.251-1.261,1.216c-0.83-0.082-1.314-1.242-1.441-3.447
		c-1.959,1.898-7.31,6.676-13.877,11.612C40.528,104.995,40.318,105.06,40.111,105.06z"/>
	<path d="M51.685,41.601"/>
</g>
</svg>
