<?xml version="1.0" encoding="utf-8"?>
<!-- Generator: Adobe Illustrator 16.0.0, SVG Export Plug-In . SVG Version: 6.00 Build 0)  -->
<!DOCTYPE svg PUBLIC "-//W3C//DTD SVG 1.1//EN" "http://www.w3.org/Graphics/SVG/1.1/DTD/svg11.dtd">
<svg version="1.1" id="Layer_1" xmlns="http://www.w3.org/2000/svg" xmlns:xlink="http://www.w3.org/1999/xlink" x="0px" y="0px"
	 width="80px" height="128px" viewBox="0 0 80 128" enable-background="new 0 0 80 128" xml:space="preserve">
<g>
	<path d="M17.27,53.041L17.27,53.041c-0.679,0-1.122-0.398-1.28-0.569c-1.475-1.438-1.694-3.659-1.091-5.229
		c-0.28,0.019-0.562,0.028-0.842,0.028c-6.805,0-12.341-5.536-12.341-12.34c0-6.805,5.536-12.341,12.341-12.341
		c6.804,0,12.34,5.536,12.34,12.341c0,0.841-0.125,1.626-0.247,2.386l-0.047,0.295c-1.356,8.628-7.21,14.57-7.458,14.819
		C18.109,52.938,17.604,53.041,17.27,53.041z M16.094,45.189c0.41,0,0.776,0.205,0.978,0.548c0.359,0.61,0.062,1.319-0.278,1.933
		c-0.495,0.894-0.406,2.503,0.501,3.415c0.007-0.006,0.014-0.012,0.021-0.019c0.037-0.038,5.65-5.75,6.907-13.75l0.047-0.301
		c0.115-0.718,0.223-1.395,0.223-2.085c0-5.755-4.682-10.437-10.436-10.437c-5.755,0-10.437,4.682-10.437,10.437
		s4.682,10.437,10.437,10.437c0.595,0,1.191-0.05,1.772-0.15C15.898,45.203,15.988,45.189,16.094,45.189z"/>
	<path d="M2.897,34.066c-0.16,0-0.321-0.041-0.47-0.125c-0.458-0.26-0.617-0.841-0.357-1.298c0.272-0.48,2.76-4.669,5.924-3.778
		c0.354,0.1,0.714,0.212,1.078,0.327c2.183,0.686,4.246,1.333,6.383-0.458c4.731-3.964,7.741-1.829,9.113-0.201
		c0.34,0.402,0.289,1.002-0.113,1.342c-0.401,0.338-1.002,0.287-1.342-0.114c-1.051-1.247-2.862-2.559-6.435,0.434
		c-2.938,2.46-5.842,1.547-8.176,0.814c-0.347-0.108-0.688-0.215-1.024-0.31c-1.484-0.415-3.251,2.004-3.753,2.885
		C3.549,33.893,3.229,34.066,2.897,34.066z"/>
	<path d="M34.314,94.781c-0.378,0-0.735-0.227-0.884-0.598c-3.209-7.998-5.682-10.914-5.707-10.943
		c-0.014-0.016-0.03-0.035-0.042-0.053c-1.102-1.469-2.369-2.59-3.71-3.775c-2.565-2.27-5.47-4.838-7.831-10.469
		c-3.604-8.604-0.069-17.047,0.082-17.403c0.207-0.483,0.766-0.708,1.25-0.5c0.483,0.207,0.708,0.766,0.502,1.249
		c-0.035,0.08-3.363,8.076-0.077,15.917c2.19,5.229,4.806,7.541,7.334,9.777c1.409,1.248,2.74,2.426,3.954,4.037
		c0.297,0.352,2.796,3.443,6.01,11.453c0.196,0.488-0.041,1.043-0.529,1.238C34.552,94.758,34.432,94.781,34.314,94.781z"/>
	<path d="M28.018,69.236c-1.516,0-2.749-1.232-2.749-2.75c0-1.516,1.233-2.75,2.749-2.75c1.518,0,2.75,1.234,2.75,2.75
		C30.769,68.004,29.536,69.236,28.018,69.236z M28.018,65.641c-0.466,0-0.845,0.379-0.845,0.846s0.379,0.846,0.845,0.846
		c0.467,0,0.847-0.379,0.847-0.846S28.485,65.641,28.018,65.641z"/>
	<path d="M30.744,71.035c-0.098,0-0.197-0.016-0.296-0.047c-0.5-0.164-0.772-0.701-0.608-1.201c0.684-2.094-1.102-4.092-1.121-4.111
		c-2.018-2.213-4.773-1.147-4.801-1.135c-0.489,0.195-1.042-0.042-1.238-0.53c-0.195-0.488,0.042-1.042,0.53-1.237
		c0.163-0.065,4.018-1.557,6.914,1.617c0.102,0.109,2.559,2.823,1.525,5.989C31.518,70.779,31.145,71.035,30.744,71.035z"/>
	<path d="M39.973,100.369c-4.273,0-6.384-1.736-6.452-5.307c-0.028-1.467,0.719-2.891,2.052-3.906
		c0.024-0.018,1.379-1.053,1.358-2.684c-0.023-1.967-0.547-3.457-0.552-3.473c-0.176-0.494,0.081-1.039,0.575-1.217
		c0.493-0.178,1.039,0.08,1.216,0.572c0.026,0.072,0.636,1.791,0.665,4.094c0.032,2.629-2.037,4.168-2.125,4.232
		c-0.84,0.641-1.303,1.479-1.287,2.346c0.041,2.123,0.817,3.439,4.549,3.439c0.525,0,0.952,0.424,0.952,0.951
		C40.924,99.943,40.498,100.369,39.973,100.369z"/>
	<path d="M37.805,96.738c-0.05,0-0.101-0.004-0.151-0.012c-0.513-0.082-0.865-0.563-0.792-1.076c0.03-0.262,0-1.127-1.542-1.43
		c-0.516-0.102-0.852-0.604-0.75-1.119s0.603-0.852,1.118-0.75c2.783,0.549,3.216,2.584,3.057,3.584
		C38.668,96.404,38.264,96.738,37.805,96.738z"/>
	<path d="M39.945,56.199L39.945,56.199c-0.526,0-0.952-0.426-0.952-0.952c0-8.465-5.805-17.174-6.75-18.534
		c-1.894,0.271-4.077,1.026-6.438,2.635c-0.434,0.296-1.026,0.184-1.323-0.25c-0.296-0.435-0.183-1.026,0.25-1.323
		c8.738-5.956,15.489-1.516,15.773-1.324c0.261,0.177,0.417,0.473,0.417,0.79l-0.027,18.004c0,0,0,0.002,0,0.002v0.001
		C40.897,55.774,40.471,56.199,39.945,56.199z M34.465,36.601c1.096,1.687,3.069,5.002,4.543,9.026l0.011-7.843
		C38.296,37.399,36.688,36.696,34.465,36.601z"/>
	<path d="M32.146,89.756c-0.296,0-0.589-0.139-0.775-0.398c-0.468-0.652-11.667-15.945-29.058-9.914
		c-0.5,0.174-1.04-0.09-1.212-0.586c-0.172-0.498,0.09-1.039,0.587-1.213C20.445,71.139,32.798,88.08,32.92,88.252
		c0.305,0.428,0.206,1.021-0.222,1.326C32.53,89.699,32.338,89.756,32.146,89.756z"/>
	<path d="M33.414,93.035c-0.232,0-0.465-0.086-0.648-0.256c-0.626-0.58-15.478-14.119-30.194-3.107
		c-0.42,0.316-1.016,0.23-1.333-0.191c-0.314-0.422-0.229-1.018,0.192-1.332c16-11.975,32.469,3.084,32.632,3.238
		c0.384,0.359,0.405,0.961,0.047,1.346C33.923,92.934,33.669,93.035,33.414,93.035z"/>
	<path d="M5.596,105.41c-0.126,0-0.253-0.023-0.376-0.076c-0.483-0.207-0.707-0.768-0.5-1.25
		c2.751-6.408,6.783-10.531,11.985-12.254c8.884-2.941,17.866,2.172,18.244,2.393c0.454,0.264,0.609,0.844,0.346,1.299
		c-0.264,0.455-0.846,0.611-1.3,0.348c-0.085-0.049-8.642-4.906-16.702-2.229c-4.657,1.549-8.299,5.314-10.822,11.193
		C6.316,105.195,5.964,105.41,5.596,105.41z"/>
	<path d="M62.73,53.041c-0.333,0-0.839-0.103-1.356-0.593c-0.266-0.267-6.121-6.208-7.477-14.836l-0.047-0.295
		c-0.121-0.759-0.248-1.544-0.248-2.386c0-6.805,5.535-12.341,12.341-12.341c6.804,0,12.34,5.536,12.34,12.341
		c0,6.804-5.536,12.34-12.34,12.34c-0.281,0-0.562-0.009-0.841-0.028c0.602,1.57,0.384,3.791-1.092,5.229
		C63.853,52.642,63.409,53.041,62.73,53.041z M65.943,24.493c-5.755,0-10.437,4.682-10.437,10.437c0,0.69,0.109,1.367,0.223,2.084
		l0.049,0.301c1.256,8,6.868,13.712,6.925,13.769c0,0,0.001,0,0.001,0.001c0.908-0.912,0.997-2.521,0.502-3.416
		c-0.34-0.614-0.637-1.323-0.277-1.933c0.202-0.343,0.568-0.548,0.979-0.548c0.104,0,0.195,0.014,0.263,0.028
		c0.583,0.1,1.179,0.15,1.773,0.15c5.754,0,10.436-4.682,10.436-10.437S71.697,24.493,65.943,24.493z"/>
	<path d="M77.104,34.066c-0.331,0-0.653-0.173-0.828-0.482c-0.506-0.881-2.274-3.301-3.755-2.885
		c-0.335,0.095-0.677,0.202-1.022,0.31c-2.334,0.734-5.239,1.646-8.177-0.814c-3.572-2.993-5.383-1.681-6.436-0.434
		c-0.338,0.401-0.938,0.453-1.341,0.114c-0.401-0.339-0.452-0.94-0.114-1.342c1.373-1.627,4.383-3.763,9.115,0.201
		c2.137,1.791,4.197,1.144,6.382,0.458c0.364-0.114,0.724-0.227,1.077-0.327c3.17-0.891,5.652,3.297,5.925,3.778
		c0.261,0.457,0.101,1.039-0.356,1.298C77.424,34.026,77.263,34.066,77.104,34.066z"/>
	<path d="M45.687,94.781c-0.117,0-0.238-0.023-0.354-0.068c-0.487-0.195-0.724-0.75-0.528-1.238
		c3.215-8.01,5.713-11.102,6.012-11.453c1.213-1.611,2.544-2.789,3.953-4.037c2.529-2.236,5.143-4.549,7.335-9.777
		c3.296-7.867-0.042-15.837-0.077-15.917c-0.207-0.483,0.018-1.043,0.501-1.25c0.481-0.206,1.042,0.017,1.249,0.5
		c0.152,0.355,3.688,8.799,0.084,17.403c-2.361,5.631-5.266,8.199-7.83,10.469c-1.342,1.186-2.609,2.307-3.711,3.775
		c-0.015,0.02-0.029,0.037-0.045,0.055c-0.021,0.027-2.494,2.943-5.703,10.941C46.422,94.555,46.065,94.781,45.687,94.781z"/>
	<path d="M51.981,69.236c-1.516,0-2.751-1.232-2.751-2.75c0-1.516,1.235-2.75,2.751-2.75c1.518,0,2.75,1.234,2.75,2.75
		C54.731,68.004,53.499,69.236,51.981,69.236z M51.981,65.641c-0.467,0-0.847,0.379-0.847,0.846s0.38,0.846,0.847,0.846
		s0.846-0.379,0.846-0.846S52.448,65.641,51.981,65.641z"/>
	<path d="M49.257,71.035c-0.402,0-0.773-0.256-0.905-0.656c-1.034-3.166,1.423-5.879,1.527-5.993
		c2.895-3.17,6.748-1.679,6.911-1.613c0.488,0.195,0.726,0.749,0.529,1.237c-0.193,0.485-0.746,0.723-1.232,0.532
		c-0.132-0.051-2.816-1.048-4.805,1.131c-0.019,0.021-1.805,2.02-1.121,4.113c0.164,0.5-0.109,1.037-0.609,1.201
		C49.454,71.02,49.354,71.035,49.257,71.035z"/>
	<path d="M40.028,100.369c-0.526,0-0.952-0.426-0.952-0.951c0-0.527,0.426-0.951,0.952-0.951c3.732,0,4.507-1.316,4.549-3.439
		c0.016-0.867-0.445-1.705-1.303-2.357c-0.072-0.053-2.142-1.592-2.109-4.221c0.028-2.303,0.638-4.021,0.664-4.094
		c0.179-0.494,0.725-0.75,1.219-0.572c0.494,0.18,0.751,0.725,0.572,1.219c-0.004,0.014-0.526,1.504-0.551,3.471
		c-0.021,1.631,1.334,2.666,1.348,2.676c1.344,1.023,2.092,2.447,2.063,3.914C46.412,98.633,44.301,100.369,40.028,100.369z"/>
	<path d="M42.19,96.727c-0.459,0-0.859-0.324-0.934-0.791c-0.16-1,0.272-3.035,3.057-3.584c0.52-0.102,1.016,0.234,1.118,0.75
		c0.102,0.516-0.234,1.018-0.75,1.119c-1.548,0.305-1.571,1.176-1.542,1.434c0.059,0.516-0.303,0.994-0.814,1.063
		C42.279,96.723,42.235,96.727,42.19,96.727z"/>
	<path d="M40.054,56.199c-0.524,0-0.951-0.425-0.952-0.95v-0.001c0,0,0-0.002,0-0.002l-0.026-18.004c0-0.316,0.156-0.612,0.418-0.79
		c0.284-0.192,7.036-4.631,15.772,1.324c0.435,0.296,0.546,0.888,0.251,1.323c-0.296,0.435-0.889,0.546-1.323,0.25
		c-2.361-1.609-4.543-2.364-6.439-2.635c-0.942,1.36-6.749,10.069-6.749,18.534c0,0.525-0.425,0.952-0.95,0.952H40.054z
		 M40.981,37.784l0.011,7.843c1.473-4.024,3.448-7.339,4.543-9.025C43.314,36.696,41.706,37.398,40.981,37.784z"/>
	<path d="M47.854,89.758c-0.191,0-0.384-0.059-0.553-0.178c-0.428-0.307-0.527-0.9-0.222-1.328
		c0.122-0.172,12.479-17.113,31.231-10.607c0.496,0.174,0.759,0.715,0.587,1.213c-0.173,0.496-0.715,0.76-1.212,0.586
		c-17.422-6.043-28.941,9.754-29.056,9.914C48.444,89.617,48.152,89.758,47.854,89.758z"/>
	<path d="M46.587,93.035c-0.256,0-0.51-0.102-0.697-0.303c-0.357-0.383-0.338-0.986,0.047-1.346
		c0.164-0.152,16.635-15.211,32.633-3.238c0.422,0.314,0.507,0.91,0.192,1.332c-0.316,0.422-0.912,0.506-1.333,0.191
		c-14.738-11.029-30.04,2.965-30.193,3.107C47.052,92.949,46.818,93.035,46.587,93.035z"/>
	<path d="M74.404,105.41c-0.369,0-0.72-0.215-0.875-0.576c-2.526-5.885-6.171-9.652-10.835-11.195
		c-8.076-2.678-16.604,2.182-16.688,2.23c-0.457,0.264-1.037,0.107-1.302-0.346c-0.265-0.455-0.108-1.037,0.346-1.301
		c0.378-0.221,9.361-5.334,18.243-2.393c5.202,1.723,9.235,5.846,11.986,12.254c0.206,0.482-0.017,1.043-0.5,1.25
		C74.657,105.387,74.53,105.41,74.404,105.41z"/>
</g>
</svg>
