<?xml version="1.0" encoding="utf-8"?>
<!-- Generator: Adobe Illustrator 16.0.0, SVG Export Plug-In . SVG Version: 6.00 Build 0)  -->
<!DOCTYPE svg PUBLIC "-//W3C//DTD SVG 1.1//EN" "http://www.w3.org/Graphics/SVG/1.1/DTD/svg11.dtd">
<svg version="1.1" id="Layer_1" xmlns="http://www.w3.org/2000/svg" xmlns:xlink="http://www.w3.org/1999/xlink" x="0px" y="0px"
	 width="80px" height="128px" viewBox="0 0 80 128" enable-background="new 0 0 80 128" xml:space="preserve">
<g>
	<path d="M23.969,68.366c-2.137,0-3.876-1.738-3.876-3.875s1.74-3.876,3.876-3.876c2.137,0,3.875,1.739,3.875,3.876
		S26.106,68.366,23.969,68.366z M23.969,62.729c-0.972,0-1.762,0.79-1.762,1.762c0,0.971,0.791,1.76,1.762,1.76
		c0.972,0,1.761-0.789,1.761-1.76C25.73,63.519,24.941,62.729,23.969,62.729z"/>
	<path d="M33.041,85.983c-1.991,0-3.611-1.621-3.611-3.611c0-1.991,1.62-3.612,3.611-3.612c1.992,0,3.612,1.621,3.612,3.612
		C36.653,84.362,35.033,85.983,33.041,85.983z M33.041,80.875c-0.825,0-1.497,0.671-1.497,1.497c0,0.825,0.672,1.497,1.497,1.497
		c0.827,0,1.498-0.672,1.498-1.497C34.539,81.546,33.867,80.875,33.041,80.875z"/>
	<path d="M31.351,92.935c-2.288,0-4.218-1.276-5.153-2.259c-3.606-4.125-3.024-8.881,1.854-15.453
		c5.271-7.1,11.74-6.784,12.014-6.767c0.582,0.036,1.025,0.538,0.989,1.121c-0.036,0.582-0.521,1.018-1.118,0.989
		c-0.238-0.016-5.637-0.213-10.187,5.917c-5.307,7.149-4.094,10.361-1.991,12.769c0.083,0.084,2.859,2.891,6.016,0.785
		c1.1-0.734,1.885-1.293,2.517-1.743c1.64-1.169,2.254-1.606,3.796-1.606c0.583,0,1.057,0.473,1.057,1.058
		c0,0.584-0.474,1.056-1.057,1.056c-0.846,0-0.986,0.086-2.569,1.215c-0.61,0.434-1.444,1.028-2.571,1.778
		C33.714,92.618,32.488,92.934,31.351,92.935z"/>
	<path d="M39.824,103.776c-17.537,0-35.235-9.861-35.235-31.886c0-10.127,3.616-20.464,9.921-28.36
		c6.759-8.467,15.75-13.129,25.314-13.129c0.583,0,1.057,0.474,1.057,1.057c0,0.584-0.474,1.057-1.057,1.057
		c-19.518,0-33.12,20.75-33.12,39.375c0,20.564,16.634,29.771,33.12,29.771c0.583,0,1.057,0.475,1.057,1.057
		C40.881,103.302,40.407,103.776,39.824,103.776z"/>
	<path d="M12.606,48.458c-0.283,0-0.565-0.112-0.773-0.335c-6.68-7.158-9.427-16.887-9.381-21.447
		c-1.273-0.366-2.207-1.541-2.207-2.928c0-1.68,1.368-3.047,3.047-3.047c1.41,0,2.598,0.962,2.945,2.263
		c4.491,0.139,13.348,3.788,20.157,11.085c0.399,0.427,0.376,1.095-0.051,1.494c-0.426,0.398-1.095,0.375-1.494-0.051
		C17.768,27.904,8.435,24.696,5.414,25.107c-0.354,0.048-0.699-0.083-0.933-0.347c-0.212-0.241-0.302-0.562-0.25-0.875
		c-0.002-0.038-0.004-0.083-0.004-0.138c0-0.515-0.418-0.933-0.934-0.933c-0.515,0-0.933,0.418-0.933,0.933s0.418,0.933,0.933,0.933
		c0.063,0,0.11,0.002,0.15,0.005c0.309-0.038,0.625,0.064,0.854,0.279c0.252,0.238,0.377,0.583,0.326,0.926
		c-0.423,2.794,1.562,13.08,8.756,20.79c0.397,0.427,0.374,1.096-0.053,1.494C13.123,48.365,12.864,48.458,12.606,48.458z"/>
	<path d="M22.559,37.801c-0.25,0-0.502-0.089-0.704-0.269c-8.931-7.984-17.806-7.231-17.895-7.223
		c-0.584,0.06-1.098-0.369-1.156-0.948c-0.056-0.58,0.365-1.098,0.944-1.155c0.4-0.042,9.854-0.889,19.515,7.75
		c0.435,0.389,0.473,1.058,0.084,1.492C23.139,37.682,22.85,37.801,22.559,37.801z"/>
	<path d="M56.031,68.366c-2.136,0-3.875-1.738-3.875-3.875s1.739-3.876,3.875-3.876c2.138,0,3.875,1.739,3.875,3.876
		S58.169,68.366,56.031,68.366z M56.031,62.729c-0.971,0-1.762,0.79-1.762,1.762c0,0.971,0.791,1.76,1.762,1.76
		c0.973,0,1.761-0.789,1.761-1.76C57.792,63.519,57.004,62.729,56.031,62.729z"/>
	<path d="M46.958,85.983c-1.991,0-3.611-1.621-3.611-3.611c0-1.991,1.62-3.612,3.611-3.612c1.992,0,3.612,1.621,3.612,3.612
		C50.57,84.362,48.95,85.983,46.958,85.983z M46.958,80.875c-0.825,0-1.497,0.671-1.497,1.497c0,0.825,0.672,1.497,1.497,1.497
		c0.826,0,1.498-0.672,1.498-1.497C48.456,81.546,47.784,80.875,46.958,80.875z"/>
	<path d="M48.646,92.933c-1.138,0-2.362-0.316-3.595-1.139c-1.127-0.75-1.961-1.345-2.57-1.778
		c-1.583-1.129-1.723-1.215-2.569-1.215c-0.583,0-1.056-0.472-1.056-1.056c0-0.585,0.474-1.058,1.056-1.058
		c1.542,0,2.155,0.438,3.797,1.606c0.63,0.45,1.416,1.009,2.516,1.743c3.191,2.125,5.933-0.697,6.048-0.818
		c2.073-2.374,3.287-5.586-2.021-12.735c-4.56-6.142-9.959-5.932-10.191-5.917c-0.571,0.03-1.08-0.413-1.114-0.995
		c-0.033-0.581,0.408-1.079,0.987-1.115c0.274-0.02,6.741-0.334,12.014,6.767c4.879,6.572,5.461,11.328,1.887,15.42
		C52.877,91.648,50.937,92.933,48.646,92.933z"/>
	<path d="M40.176,103.776c-0.583,0-1.057-0.475-1.057-1.058c0-0.582,0.475-1.057,1.057-1.057c16.485,0,33.12-9.207,33.12-29.771
		c0-18.625-13.601-39.375-33.12-39.375c-0.583,0-1.057-0.473-1.057-1.057c0-0.583,0.475-1.057,1.057-1.057
		c9.565,0,18.556,4.662,25.314,13.129c6.305,7.896,9.92,18.233,9.92,28.36C75.41,93.915,57.715,103.776,40.176,103.776z"/>
	<path d="M67.396,48.458c-0.26,0-0.519-0.094-0.723-0.284c-0.427-0.398-0.45-1.067-0.051-1.494
		c7.194-7.709,9.179-17.996,8.757-20.79c-0.054-0.345,0.068-0.693,0.323-0.931c0.233-0.217,0.55-0.316,0.861-0.275
		c0.039-0.002,0.085-0.004,0.143-0.004c0.516,0,0.934-0.418,0.934-0.933s-0.418-0.933-0.934-0.933c-0.514,0-0.932,0.418-0.932,0.933
		c0,0.063-0.002,0.113-0.005,0.153c0.037,0.306-0.056,0.624-0.263,0.852c-0.233,0.258-0.578,0.4-0.922,0.354
		c-3.02-0.415-12.353,2.796-19.434,10.385c-0.399,0.427-1.068,0.45-1.493,0.051c-0.428-0.398-0.45-1.066-0.053-1.494
		c6.812-7.297,15.67-10.946,20.159-11.085c0.347-1.304,1.536-2.263,2.941-2.263c1.682,0,3.048,1.367,3.048,3.047
		c0,1.388-0.934,2.563-2.207,2.928c0.046,4.56-2.698,14.289-9.379,21.447C67.961,48.346,67.679,48.458,67.396,48.458z"/>
	<path d="M57.441,37.801c-0.291,0-0.579-0.119-0.788-0.353c-0.39-0.435-0.352-1.103,0.083-1.492
		c9.661-8.638,19.114-7.791,19.515-7.75c0.581,0.058,1.004,0.577,0.944,1.158c-0.058,0.581-0.588,1.001-1.154,0.945
		c-0.144-0.013-8.992-0.736-17.895,7.223C57.944,37.711,57.692,37.801,57.441,37.801z"/>
</g>
</svg>
