<?xml version="1.0" encoding="utf-8"?>
<!-- Generator: Adobe Illustrator 16.0.0, SVG Export Plug-In . SVG Version: 6.00 Build 0)  -->
<!DOCTYPE svg PUBLIC "-//W3C//DTD SVG 1.1//EN" "http://www.w3.org/Graphics/SVG/1.1/DTD/svg11.dtd">
<svg version="1.1" id="Layer_1" xmlns="http://www.w3.org/2000/svg" xmlns:xlink="http://www.w3.org/1999/xlink" x="0px" y="0px"
	 width="128px" height="80px" viewBox="0 0 128 80" enable-background="new 0 0 128 80" xml:space="preserve">
<g>
	<path d="M64.169,79.434c-13.684,0-23.24-7.489-23.24-18.214c0-1.867,0.32-3.683,0.952-5.401c0.082-0.211,1.873-4.766,4.133-7.514
		c0.001,0,2.126-2.824,3.02-7.282c1.061-5.878,7.567-10.324,15.135-10.324c0.526,0,0.954,0.427,0.954,0.954
		c0,0.528-0.427,0.955-0.954,0.955c-6.658,0-12.357,3.771-13.259,8.772c-0.989,4.936-3.304,7.987-3.402,8.115
		c-2.085,2.535-3.825,6.955-3.842,7.001c-0.547,1.488-0.828,3.082-0.828,4.725c0,9.601,8.771,16.307,21.332,16.307
		c0.526,0,0.954,0.425,0.954,0.952C65.123,79.008,64.696,79.434,64.169,79.434z"/>
	<path d="M64.115,79.434c-0.527,0-0.955-0.426-0.955-0.955c0-0.527,0.427-0.952,0.955-0.952c12.558,0,21.331-6.706,21.331-16.307
		c0-1.643-0.282-3.236-0.837-4.742c-0.009-0.028-1.749-4.448-3.815-6.959c-0.117-0.152-2.432-3.204-3.417-8.12
		c-0.905-5.02-6.604-8.792-13.261-8.792c-0.527,0-0.955-0.427-0.955-0.955c0-0.527,0.427-0.954,0.955-0.954
		c7.567,0,14.073,4.446,15.137,10.342c0.895,4.47,3.014,7.263,3.036,7.29c2.24,2.723,4.031,7.277,4.107,7.471
		c0.637,1.736,0.958,3.552,0.958,5.419C87.354,71.944,77.796,79.434,64.115,79.434z"/>
	<path d="M51.68,54.67c-0.318,0-0.631-0.056-0.932-0.165c-1.414-0.516-2.145-2.083-1.63-3.495c0.391-1.075,1.421-1.797,2.564-1.797
		c0.318,0,0.63,0.058,0.932,0.167c1.414,0.517,2.144,2.084,1.629,3.494C53.852,53.949,52.822,54.67,51.68,54.67z M51.682,51.123
		c-0.343,0-0.653,0.217-0.771,0.539c-0.154,0.425,0.066,0.896,0.49,1.049c0.418,0.154,0.9-0.076,1.049-0.489
		c0.154-0.424-0.064-0.894-0.489-1.05C51.871,51.14,51.777,51.123,51.682,51.123z"/>
	<path d="M54.614,56.462c-0.1,0-0.202-0.015-0.301-0.049c-0.501-0.166-0.771-0.707-0.604-1.207c0.357-1.073,0.357-1.969,0.001-2.664
		c-0.492-0.959-1.54-1.295-1.55-1.299c-0.5-0.155-0.787-0.686-0.635-1.189c0.151-0.5,0.674-0.787,1.178-0.64
		c0.073,0.021,1.811,0.546,2.689,2.227c0.615,1.176,0.658,2.577,0.127,4.169C55.386,56.21,55.014,56.462,54.614,56.462z"/>
	<path d="M76.578,54.67L76.578,54.67c-1.141,0-2.171-0.721-2.562-1.796c-0.516-1.41,0.215-2.978,1.628-3.494
		c0.302-0.109,0.614-0.167,0.933-0.167c1.142,0,2.173,0.722,2.563,1.794c0.517,1.415-0.216,2.982-1.63,3.498
		C77.209,54.614,76.897,54.67,76.578,54.67z M76.577,51.123c-0.096,0-0.188,0.017-0.28,0.049c-0.424,0.156-0.643,0.626-0.487,1.05
		c0.117,0.322,0.426,0.539,0.769,0.539l0,0c0.095,0,0.19-0.015,0.28-0.05c0.423-0.153,0.645-0.624,0.49-1.049
		C77.23,51.34,76.92,51.123,76.577,51.123z"/>
	<path d="M73.646,56.462c-0.399,0-0.772-0.252-0.906-0.652c-0.531-1.592-0.489-2.993,0.126-4.169
		c0.878-1.681,2.617-2.205,2.691-2.227c0.503-0.149,1.034,0.142,1.184,0.646c0.146,0.505-0.139,1.032-0.642,1.185
		c-0.033,0.01-1.063,0.347-1.55,1.297c-0.356,0.695-0.356,1.591,0.001,2.664c0.167,0.5-0.103,1.041-0.604,1.207
		C73.847,56.447,73.745,56.462,73.646,56.462z"/>
	<path d="M51.549,38.083c-0.225,0-0.45-0.079-0.631-0.239c-1.994-1.766-4.313-3.565-6.557-5.304
		c-3.643-2.825-7.409-5.746-10.104-8.749c-8.188-9.127-9.093-14.933-8.904-17.581c0.121-1.678,0.739-3.065,1.744-3.904
		c0.896-0.75,2.154-1.042,3.629-0.844c4.632,0.622,10.683,5.72,16.186,13.637c3.528,5.076,5.657,10.395,7.912,16.027
		c0.344,0.862,0.693,1.735,1.053,2.619c0.199,0.488-0.037,1.045-0.524,1.243c-0.49,0.198-1.047-0.037-1.244-0.525
		c-0.361-0.887-0.71-1.762-1.057-2.627c-2.213-5.529-4.302-10.75-7.707-15.647C39.217,7.375,33.644,3.78,30.471,3.354
		c-0.65-0.087-1.551-0.085-2.151,0.416c-0.604,0.504-0.98,1.419-1.064,2.577c-0.134,1.889,0.416,7.245,8.421,16.169
		c2.582,2.876,6.278,5.743,9.853,8.516c2.268,1.758,4.613,3.577,6.653,5.383c0.394,0.349,0.431,0.952,0.083,1.347
		C52.076,37.973,51.813,38.083,51.549,38.083z"/>
	<path d="M52.227,37.091c-0.384,0-0.746-0.233-0.892-0.616C41.971,11.858,26.611,8.79,26.457,8.762
		c-0.517-0.095-0.862-0.59-0.769-1.108c0.094-0.519,0.585-0.862,1.105-0.771c0.671,0.119,16.547,3.206,26.327,28.916
		c0.188,0.493-0.06,1.044-0.553,1.231C52.455,37.072,52.34,37.091,52.227,37.091z"/>
	<path d="M76.45,37.248c-0.264,0-0.526-0.108-0.716-0.321c-0.349-0.396-0.312-0.998,0.082-1.348
		c2.041-1.806,4.386-3.625,6.653-5.384c3.575-2.773,7.273-5.64,9.854-8.515c8.006-8.924,8.554-14.279,8.421-16.168
		c-0.084-1.158-0.462-2.073-1.064-2.577c-0.6-0.502-1.503-0.504-2.152-0.416c-3.173,0.425-8.744,4.021-14.871,12.834
		c-3.403,4.896-5.494,10.116-7.706,15.643c-0.347,0.867-0.697,1.743-1.058,2.631c-0.199,0.488-0.755,0.725-1.244,0.525
		c-0.487-0.199-0.723-0.754-0.525-1.243c0.36-0.885,0.71-1.759,1.055-2.623c2.254-5.631,4.384-10.949,7.911-16.023
		C86.592,6.347,92.643,1.249,97.275,0.627c1.476-0.198,2.731,0.094,3.628,0.843c1.005,0.839,1.624,2.226,1.744,3.905
		c0.189,2.648-0.716,8.453-8.905,17.58c-2.695,3.004-6.461,5.924-10.102,8.749c-2.243,1.74-4.563,3.54-6.559,5.304
		C76.901,37.169,76.677,37.248,76.45,37.248z"/>
	<path d="M75.772,36.257c-0.113,0-0.229-0.02-0.341-0.063c-0.491-0.188-0.739-0.738-0.552-1.231
		c9.779-25.71,25.656-28.797,26.327-28.916c0.521-0.09,1.014,0.254,1.106,0.773c0.091,0.519-0.255,1.013-0.771,1.106
		c-0.164,0.03-15.517,3.105-24.877,27.715C76.519,36.023,76.156,36.257,75.772,36.257z"/>
	<path d="M61.252,78.783c-0.25,0-0.499-0.099-0.686-0.291c-0.367-0.38-0.357-0.983,0.021-1.35l2.653-2.569V69.54l-3.688-2.494
		c-0.436-0.296-0.552-0.889-0.256-1.325c0.294-0.438,0.89-0.551,1.325-0.256l4.108,2.777c0.262,0.176,0.418,0.473,0.418,0.79v5.944
		c0,0.258-0.105,0.507-0.29,0.687l-2.943,2.85C61.73,78.692,61.491,78.783,61.252,78.783z"/>
	<path d="M55.947,78.313c-0.086,0-0.172-0.012-0.26-0.035c-3.559-1.002-6.153-4.805-5.905-8.658c0.179-2.79,1.699-5.162,3.967-6.191
		c0.479-0.219,1.045-0.007,1.264,0.473c0.218,0.479,0.006,1.047-0.473,1.264c-1.625,0.738-2.718,2.494-2.852,4.579
		c-0.189,2.938,1.837,5.941,4.517,6.695c0.507,0.144,0.803,0.67,0.661,1.178C56.746,78.038,56.363,78.313,55.947,78.313z"/>
	<path d="M36.157,73.505c-0.513,0-0.938-0.409-0.953-0.925c-0.017-0.527,0.397-0.968,0.925-0.983l17.766-0.545l-24.113-9.074
		c-0.494-0.186-0.742-0.736-0.557-1.229c0.185-0.494,0.737-0.742,1.229-0.556l28.629,10.771c0.427,0.161,0.679,0.601,0.605,1.051
		c-0.075,0.448-0.458,0.782-0.913,0.797l-22.589,0.694C36.177,73.505,36.167,73.505,36.157,73.505z"/>
	<path d="M67.085,78.783c-0.238,0-0.478-0.091-0.665-0.271l-2.941-2.85c-0.185-0.18-0.29-0.429-0.29-0.687v-5.944
		c0-0.317,0.158-0.614,0.419-0.79l4.107-2.777c0.436-0.295,1.031-0.182,1.324,0.256c0.297,0.437,0.182,1.029-0.255,1.325
		l-3.688,2.494v5.033l2.653,2.569c0.377,0.366,0.388,0.97,0.021,1.35C67.584,78.685,67.335,78.783,67.085,78.783z"/>
	<path d="M72.391,78.313c-0.416,0-0.799-0.274-0.919-0.696c-0.142-0.508,0.154-1.034,0.661-1.178
		c2.68-0.754,4.706-3.758,4.519-6.695c-0.135-2.085-1.228-3.841-2.853-4.579c-0.479-0.217-0.693-0.784-0.474-1.264
		c0.217-0.479,0.782-0.691,1.263-0.473c2.269,1.029,3.788,3.401,3.969,6.191c0.247,3.854-2.347,7.656-5.907,8.658
		C72.563,78.301,72.476,78.313,72.391,78.313z"/>
	<path d="M92.18,73.505c-0.009,0-0.02,0-0.029,0l-22.589-0.694c-0.454-0.015-0.837-0.349-0.912-0.797
		c-0.074-0.45,0.18-0.89,0.606-1.051l28.627-10.771c0.493-0.187,1.043,0.062,1.229,0.556c0.188,0.493-0.062,1.044-0.556,1.229
		l-24.112,9.074l17.767,0.545c0.526,0.016,0.939,0.456,0.925,0.983C93.117,73.096,92.693,73.505,92.18,73.505z"/>
</g>
</svg>
