<?xml version="1.0" encoding="utf-8"?>
<!-- Generator: Adobe Illustrator 16.0.0, SVG Export Plug-In . SVG Version: 6.00 Build 0)  -->
<!DOCTYPE svg PUBLIC "-//W3C//DTD SVG 1.1//EN" "http://www.w3.org/Graphics/SVG/1.1/DTD/svg11.dtd">
<svg version="1.1" id="Layer_1" xmlns="http://www.w3.org/2000/svg" xmlns:xlink="http://www.w3.org/1999/xlink" x="0px" y="0px"
	 width="80px" height="128px" viewBox="0 0 80 128" enable-background="new 0 0 80 128" xml:space="preserve">
<g>
	<path d="M39.943,89.266c-4.619,0-8.672-3.085-8.672-6.603c0.014-0.319,0.327-6.673,2.487-17.67
		c2.151-10.952,5.113-21.852,5.143-21.96c0.144-0.524,0.612-0.888,1.168-0.871c0.545,0.013,1.011,0.394,1.128,0.924l4.829,21.581
		c0.117,0.652,2.688,14.873,2.688,17.997C48.713,86.181,44.616,89.266,39.943,89.266z M39.955,48.373
		c-1.057,4.186-2.61,10.624-3.876,17.077c-2.122,10.805-2.441,17.206-2.444,17.269c0.001,1.905,2.756,4.183,6.309,4.183
		c3.548,0,6.405-2.318,6.405-4.237c0-2.417-1.905-13.472-2.641-17.527L39.955,48.373z"/>
	<path d="M40.041,93.01c-5.878,0-11.234-3.96-11.234-8.31c0-2.13,1.007-3.878,2.995-5.192c0.543-0.358,1.278-0.208,1.638,0.335
		c0.36,0.546,0.211,1.279-0.334,1.638c-1.338,0.886-1.934,1.877-1.934,3.22c0,2.75,3.874,5.945,8.869,5.945
		c4.982,0,8.847-3.195,8.847-5.945c0-1.335-0.715-2.55-2.016-3.419c-0.541-0.362-0.688-1.097-0.323-1.64
		c0.362-0.544,1.098-0.687,1.639-0.326c1.949,1.302,3.065,3.266,3.065,5.385C51.253,89.05,45.909,93.01,40.041,93.01z"/>
	<path d="M14.42,72.661c-1.983,0-3.597-1.613-3.597-3.597c0-1.982,1.613-3.598,3.597-3.598c1.982,0,3.597,1.615,3.597,3.598
		C18.017,71.048,16.402,72.661,14.42,72.661z M14.42,67.832c-0.68,0-1.232,0.553-1.232,1.232s0.552,1.231,1.232,1.231
		c0.679,0,1.231-0.552,1.231-1.231S15.099,67.832,14.42,67.832z"/>
	<path d="M12.376,75.287c-0.812,0-1.686-0.156-2.621-0.47c-0.619-0.209-0.951-0.879-0.744-1.498s0.879-0.953,1.498-0.745
		c1.439,0.485,2.593,0.457,3.426-0.076c1.412-0.91,1.67-3.041,1.672-3.064c0.068-0.649,0.649-1.121,1.3-1.054
		c0.648,0.068,1.121,0.649,1.053,1.3c-0.014,0.132-0.367,3.275-2.746,4.807C14.384,75.02,13.434,75.287,12.376,75.287z"/>
	<path d="M34.229,112.451c0,0-0.012,0-0.019,0c-7.948-0.122-11.828-2.837-12.389-3.263C6.939,99.753,5.351,75.674,5.291,74.653
		C4.2,54.802,8.743,44.108,10.526,40.737c-4.476-2.246-6.696-4.439-6.797-4.539c-8.561-9.56,0.486-19.145,0.578-19.241
		c2.246-2.368,6.887-3.274,9.36-1.822c1.429,0.839,1.96,2.368,1.423,4.091c-1.075,3.438,2.552,7.045,2.588,7.08
		c0.058,0.055,0.109,0.116,0.153,0.183c2.311,3.416,5.188,2.393,5.586,2.23c7.55-4.288,16.105-4.076,16.465-4.064
		c0.653,0.021,1.165,0.565,1.146,1.218c-0.021,0.653-0.6,1.169-1.218,1.147c-0.086-0.007-8.31-0.194-15.276,3.787
		c-0.032,0.019-0.066,0.035-0.1,0.051c-1.707,0.771-5.669,1.139-8.499-2.95c-0.658-0.678-4.508-4.892-3.102-9.386
		c0.276-0.884-0.043-1.158-0.363-1.347c-1.403-0.823-4.85-0.273-6.453,1.417c-0.321,0.333-7.608,8.12-0.568,15.982
		c-0.001,0-0.001,0-0.001,0c0.002,0,2.422,2.356,7.235,4.578c0.315,0.145,0.549,0.42,0.644,0.754
		c0.094,0.333,0.035,0.691-0.157,0.978c-0.066,0.1-6.788,10.491-5.517,33.634c0.014,0.232,1.587,23.939,15.481,32.703
		c0.04,0.024,0.078,0.051,0.115,0.081c0.028,0.021,3.456,2.668,11,2.784c0.653,0.01,1.175,0.548,1.165,1.201
		C35.401,111.935,34.874,112.451,34.229,112.451z"/>
	<path d="M39.944,113.564c-0.048,0-0.096-0.004-0.145-0.01c-9.856-1.199-13.556-7.875-13.708-8.158
		c-0.311-0.575-0.095-1.292,0.48-1.602c0.573-0.309,1.29-0.097,1.6,0.477c0.137,0.248,3.33,5.89,11.915,6.936
		c0.647,0.078,1.11,0.668,1.032,1.317C41.044,113.123,40.534,113.564,39.944,113.564z"/>
	<path d="M27.329,105.535c-1.026,0-1.863-0.166-2.49-0.496c-0.933-0.486-1.621-1.312-1.938-2.316
		c-0.313-1.007-0.218-2.076,0.271-3.01c0.595-1.136,1.777-1.845,3.084-1.845c0.957,0,1.835,0.379,2.476,1.067
		c0.034,0.034,3.286,3.597,2.381,5.328C30.495,105.443,28.061,105.535,27.329,105.535z M26.257,100.233
		c-0.332,0-0.767,0.151-0.989,0.576c-0.197,0.376-0.235,0.804-0.109,1.205c0.126,0.405,0.401,0.734,0.776,0.93
		c0.511,0.269,2.02,0.246,2.793,0.086c-0.291-0.617-0.894-1.594-1.724-2.483C26.75,100.274,26.427,100.233,26.257,100.233z"/>
	<path d="M20.334,101.318c-0.017,0-0.033,0-0.047-0.002c-0.65-0.024-1.157-0.568-1.135-1.217c0.003-0.119,0.122-2.911,2.262-4.73
		c1.461-1.241,3.447-1.712,5.902-1.396c0.648,0.083,1.105,0.675,1.022,1.324c-0.083,0.645-0.669,1.107-1.324,1.02
		c-1.757-0.226-3.122,0.06-4.053,0.841c-1.346,1.13-1.446,3.009-1.446,3.026C21.485,100.82,20.962,101.318,20.334,101.318z"/>
	<path d="M39.989,104.462c-2.589,0-4.864-1.232-6.11-2.313c-0.493-0.428-0.545-1.176-0.117-1.67c0.426-0.49,1.17-0.545,1.666-0.12
		c0.199,0.171,4.739,3.961,8.967-0.269c0.462-0.462,1.21-0.462,1.672,0c0.461,0.463,0.461,1.211,0,1.674
		C44.07,103.761,41.94,104.462,39.989,104.462z"/>
	<path d="M39.985,108.867c-2.21,0-4.155-1.053-5.219-1.979c-0.494-0.427-0.547-1.174-0.119-1.667
		c0.428-0.492,1.172-0.548,1.665-0.122c0.387,0.33,3.866,3.116,7.197-0.214c0.462-0.461,1.21-0.461,1.672,0
		c0.462,0.462,0.462,1.211,0,1.673C43.475,108.267,41.654,108.867,39.985,108.867z"/>
	<path d="M12.606,33.924L12.606,33.924c-4.748,0-7.598-2.402-7.716-2.506c-1.258-1.055-1.878-2.226-1.833-3.471
		c0.064-1.813,1.539-2.933,1.707-3.054c0.736-0.474,1.448-0.696,2.171-0.696c2.444,0,3.916,2.458,4.074,2.738
		c2.045,3.573,6.45,3.74,6.495,3.741c0.568,0.017,1.047,0.435,1.135,0.998c0.089,0.562-0.232,1.107-0.769,1.299
		C16.101,33.604,14.33,33.924,12.606,33.924z M6.101,26.844c0.007,0-0.664,0.544-0.681,1.197c-0.015,0.594,0.537,1.186,1.002,1.576
		c0.028,0.024,2.275,1.877,5.993,1.94c-1.266-0.73-2.528-1.821-3.46-3.449c-0.232-0.399-1.105-1.546-2.02-1.546
		C6.668,26.562,6.396,26.655,6.101,26.844C6.101,26.844,6.101,26.844,6.101,26.844z"/>
	<path d="M65.565,72.661c-1.982,0-3.598-1.613-3.598-3.597c0-1.982,1.615-3.598,3.598-3.598c1.983,0,3.597,1.615,3.597,3.598
		C69.162,71.048,67.549,72.661,65.565,72.661z M65.565,67.832c-0.68,0-1.232,0.553-1.232,1.232s0.553,1.231,1.232,1.231
		s1.231-0.552,1.231-1.231S66.245,67.832,65.565,67.832z"/>
	<path d="M67.608,75.287c-1.058,0-2.008-0.268-2.839-0.801c-2.379-1.531-2.731-4.675-2.746-4.807c-0.067-0.65,0.405-1.231,1.055-1.3
		c0.651-0.066,1.229,0.402,1.299,1.049l0,0c0.002,0.023,0.259,2.167,1.681,3.074c0.832,0.529,1.981,0.555,3.419,0.071
		c0.618-0.208,1.288,0.126,1.496,0.745s-0.124,1.289-0.743,1.498C69.294,75.131,68.42,75.287,67.608,75.287z"/>
	<path d="M45.756,112.451c-0.645,0-1.171-0.517-1.182-1.164c-0.009-0.653,0.511-1.191,1.164-1.201
		c7.544-0.116,10.973-2.764,11.008-2.788c0.033-0.026,0.071-0.057,0.108-0.077C70.748,98.457,72.32,74.75,72.334,74.512
		c1.271-23.138-5.449-33.528-5.518-33.63c-0.191-0.288-0.249-0.646-0.155-0.978c0.095-0.333,0.328-0.608,0.643-0.752
		c4.839-2.234,7.257-4.603,7.281-4.627c7.022-7.844-0.292-15.598-0.608-15.924c-1.612-1.7-5.059-2.25-6.46-1.426
		c-0.32,0.188-0.64,0.463-0.362,1.347c1.403,4.494-2.444,8.708-3.104,9.386c-2.827,4.088-6.789,3.722-8.497,2.95
		c-0.033-0.016-0.067-0.032-0.1-0.051c-6.988-3.993-15.191-3.791-15.276-3.787c-0.649,0.024-1.199-0.493-1.217-1.146
		c-0.021-0.653,0.492-1.199,1.145-1.219c0.36-0.012,8.913-0.222,16.46,4.063c0.469,0.19,3.304,1.149,5.59-2.228
		c0.044-0.066,0.094-0.127,0.15-0.183c0.036-0.034,3.658-3.664,2.59-7.08c-0.537-1.723-0.007-3.251,1.423-4.091
		c2.472-1.452,7.113-0.547,9.367,1.83c0.084,0.089,9.132,9.674,0.614,19.187c-0.142,0.143-2.365,2.34-6.84,4.586
		c1.782,3.371,6.325,14.064,5.235,33.91c-0.062,1.027-1.649,25.106-16.53,34.542c-0.562,0.426-4.441,3.141-12.391,3.263
		C45.77,112.451,45.763,112.451,45.756,112.451z"/>
	<path d="M40.041,113.564c-0.588,0-1.099-0.441-1.17-1.04c-0.079-0.649,0.38-1.239,1.029-1.317
		c8.593-1.046,11.783-6.695,11.915-6.936c0.313-0.571,1.03-0.783,1.602-0.473c0.574,0.31,0.787,1.024,0.479,1.598
		c-0.152,0.283-3.853,6.959-13.708,8.158C40.138,113.561,40.089,113.564,40.041,113.564z"/>
	<path d="M52.658,105.535L52.658,105.535c-0.732,0-3.168-0.092-3.784-1.27c-0.908-1.733,2.346-5.296,2.378-5.33
		c0.641-0.688,1.519-1.067,2.476-1.067c1.308,0,2.49,0.709,3.085,1.847c0.49,0.932,0.586,2.001,0.271,3.008
		c-0.315,1.005-1.003,1.83-1.937,2.318C54.521,105.369,53.684,105.535,52.658,105.535z M51.257,103.03
		c0.365,0.075,0.862,0.14,1.401,0.14l0,0c0.602,0,1.121-0.085,1.392-0.224c0.374-0.197,0.649-0.526,0.775-0.932
		c0.126-0.401,0.089-0.829-0.107-1.203c-0.225-0.427-0.658-0.578-0.99-0.578c-0.17,0-0.492,0.041-0.746,0.313
		C52.152,101.437,51.548,102.413,51.257,103.03z"/>
	<path d="M59.652,101.32c-0.632,0-1.156-0.498-1.181-1.136c-0.003-0.053-0.114-1.906-1.446-3.026
		c-0.932-0.784-2.296-1.064-4.053-0.841c-0.646,0.088-1.242-0.375-1.323-1.02c-0.086-0.649,0.374-1.241,1.021-1.324
		c2.456-0.316,4.442,0.154,5.903,1.396c2.141,1.819,2.258,4.611,2.263,4.73c0.02,0.652-0.491,1.198-1.144,1.221
		C59.679,101.32,59.666,101.32,59.652,101.32z"/>
	<path d="M67.38,33.924c-1.725,0-3.495-0.32-5.265-0.951c-0.538-0.192-0.861-0.74-0.771-1.303c0.092-0.563,0.571-0.98,1.142-0.993
		c0.041-0.001,4.445-0.168,6.491-3.743c0.159-0.278,1.631-2.736,4.073-2.736c0.724,0,1.435,0.222,2.115,0.658
		c0.223,0.159,1.698,1.279,1.763,3.092c0.046,1.245-0.576,2.417-1.846,3.481C74.978,31.522,72.128,33.924,67.38,33.924z
		 M73.051,26.562c-0.916,0-1.789,1.147-2.022,1.549c-0.93,1.626-2.19,2.716-3.456,3.446c3.764-0.062,5.958-1.912,5.98-1.931
		c0.479-0.403,1.033-0.997,1.013-1.595c-0.025-0.669-0.726-1.218-0.73-1.223C73.59,26.655,73.316,26.562,73.051,26.562z"/>
</g>
</svg>
