<?xml version="1.0" encoding="utf-8"?>
<!-- Generator: Adobe Illustrator 16.0.0, SVG Export Plug-In . SVG Version: 6.00 Build 0)  -->
<!DOCTYPE svg PUBLIC "-//W3C//DTD SVG 1.1//EN" "http://www.w3.org/Graphics/SVG/1.1/DTD/svg11.dtd">
<svg version="1.1" id="Layer_1" xmlns="http://www.w3.org/2000/svg" xmlns:xlink="http://www.w3.org/1999/xlink" x="0px" y="0px"
	 width="128px" height="80px" viewBox="0 0 128 80" enable-background="new 0 0 128 80" xml:space="preserve">
<g>
	<path d="M63.771,79.019c-0.943,0-1.583-0.297-1.767-0.395c-3.72-1.784-5.819-5.193-5.907-5.337
		c-3.273-4.685-2.68-8.066-2.456-9.338c0.014-0.074,0.025-0.137,0.034-0.193c-0.32-0.992-2.904-6.495-5.254-11.34
		c-5.929-12.5-4.294-21.918-3.203-25.646c-4.794,0.966-18.051,2.294-23.968-10.731c-0.173-0.316-0.885-1.778-0.365-3.49
		c0.223-1.138,1.117-2.175,2.428-1.988c1.095,0.154,22.069,2.457,22.281,2.48c0.525,0.058,0.904,0.529,0.846,1.054
		c-0.058,0.524-0.529,0.9-1.055,0.846c-0.866-0.095-21.215-2.33-22.337-2.487c-0.121,0.032-0.252,0.28-0.295,0.496
		c-0.007,0.037-0.019,0.084-0.03,0.12c-0.346,1.082,0.197,2.046,0.203,2.055c0.016,0.027,0.035,0.063,0.047,0.091
		c6.542,14.459,22.75,9.523,23.437,9.305c0.359-0.113,0.752-0.006,1.003,0.277c0.25,0.281,0.312,0.685,0.157,1.027
		c-0.046,0.103-4.598,10.644,2.574,25.767c5.451,11.234,5.451,11.844,5.451,12.104c0,0.174-0.029,0.347-0.072,0.585
		c-0.186,1.06-0.68,3.877,2.174,7.965c0.052,0.081,1.947,3.137,5.152,4.666c0.021,0.011,0.042,0.021,0.063,0.033
		c0.016,0.008,0.797,0.398,1.977-0.061c2.957-1.157,5.388-4.604,5.411-4.639c2.856-4.088,2.361-6.905,2.175-7.965
		c-0.042-0.238-0.073-0.411-0.073-0.585c0-0.26,0-0.869,5.458-12.111c7.166-15.115,2.615-25.656,2.567-25.761
		c-0.153-0.344-0.091-0.746,0.16-1.026c0.249-0.281,0.642-0.39,1.001-0.276c0.687,0.218,16.896,5.155,23.437-9.305
		c0.015-0.033,0.032-0.066,0.051-0.098c0.001-0.002,0.546-0.967,0.198-2.048c-0.012-0.042-0.022-0.085-0.03-0.129
		c-0.041-0.207-0.171-0.455-0.243-0.489c-1.172,0.159-21.521,2.395-22.388,2.489c-0.523,0.054-0.997-0.321-1.055-0.846
		c-0.057-0.524,0.321-0.996,0.847-1.054c0.212-0.023,21.185-2.326,22.279-2.48c1.312-0.187,2.206,0.851,2.431,1.988
		c0.52,1.712-0.193,3.174-0.365,3.49c-5.919,13.022-19.174,11.698-23.969,10.731c1.092,3.728,2.727,13.144-3.198,25.639
		c-2.356,4.855-4.94,10.36-5.259,11.352c0.007,0.048,0.02,0.111,0.033,0.188c0.225,1.271,0.818,4.653-2.488,9.388
		c-0.112,0.162-2.791,3.96-6.284,5.326C64.906,78.927,64.291,79.019,63.771,79.019z"/>
	<path d="M45.965,26.405c-0.087,0-0.175-0.012-0.264-0.037C32.526,22.588,22.31,12.929,21.882,12.52
		c-0.382-0.363-0.396-0.968-0.031-1.35s0.969-0.396,1.35-0.032c0.102,0.098,10.316,9.746,23.028,13.394
		c0.507,0.146,0.801,0.675,0.655,1.182C46.763,26.133,46.381,26.405,45.965,26.405z"/>
	<path d="M46.899,39.51c-0.5,0-1.008-0.116-1.493-0.358c-0.121-0.06-0.24-0.129-0.355-0.203c-0.442-0.289-0.566-0.881-0.278-1.323
		c0.289-0.441,0.879-0.565,1.323-0.277c0.05,0.033,0.102,0.064,0.158,0.092c0.787,0.392,1.513-0.01,1.855-0.55
		c0.047-0.076,0.088-0.318-0.003-0.649c-0.122-0.438-0.411-0.815-0.753-0.986c-0.614-0.307-1.08-0.403-1.315-0.273
		c-0.462,0.255-1.042,0.087-1.297-0.376c-0.255-0.462-0.086-1.043,0.375-1.298c1.243-0.686,2.632,0.01,3.089,0.237
		c0.824,0.411,1.476,1.228,1.742,2.184c0.226,0.81,0.144,1.606-0.224,2.185C49.071,38.941,48.007,39.51,46.899,39.51z"/>
	<path d="M50.461,40.447c-0.434,0-0.827-0.299-0.929-0.741c-0.566-2.455-1.534-3.856-1.544-3.87
		c-0.302-0.432-0.196-1.028,0.235-1.33c0.434-0.303,1.028-0.197,1.332,0.234c0.048,0.069,1.19,1.724,1.839,4.537
		c0.119,0.514-0.202,1.027-0.715,1.146C50.606,40.439,50.534,40.447,50.461,40.447z"/>
	<path d="M63.014,74.953c-3.964,0-8.383-5.79-8.924-6.519c-0.313-0.426-0.225-1.024,0.199-1.338c0.422-0.313,1.02-0.227,1.336,0.197
		c1.775,2.391,5.204,5.785,7.418,5.748v-2.958c0-0.527,0.428-0.956,0.956-0.956c0.527,0,0.955,0.429,0.955,0.956v3.737
		c0,0.395-0.244,0.75-0.614,0.891C63.908,74.878,63.464,74.953,63.014,74.953z"/>
	<path d="M61.517,68.818c-0.217,0-0.435-0.072-0.614-0.224l-2.383-2.003c-0.404-0.339-0.457-0.941-0.117-1.346
		c0.34-0.403,0.943-0.457,1.346-0.117l2.382,2.003c0.405,0.341,0.457,0.943,0.117,1.347C62.059,68.704,61.79,68.818,61.517,68.818z"
		/>
	<path d="M63.894,26.902c-2.078,0-3.855-1.157-4.66-2.849c-0.882,0.646-1.977,1.016-3.119,1.016c-2.573,0-4.709-1.82-5.068-4.182
		c-0.591,0.222-1.226,0.338-1.876,0.338c-2.824,0-5.122-2.193-5.122-4.89c0-0.85,0.225-1.665,0.658-2.395
		c-0.433-0.729-0.658-1.544-0.658-2.394c0-2.696,2.297-4.89,5.122-4.89c0.651,0,1.286,0.115,1.876,0.338
		c0.359-2.363,2.496-4.184,5.068-4.184c1.143,0,2.237,0.37,3.119,1.018c0.805-1.691,2.582-2.849,4.66-2.849
		c0.527,0,0.955,0.427,0.955,0.955s-0.428,0.956-0.955,0.956c-1.749,0-3.157,1.271-3.207,2.892
		c-0.013,0.424-0.302,0.788-0.711,0.896c-0.411,0.106-0.841-0.067-1.06-0.43c-0.57-0.941-1.644-1.526-2.801-1.526
		c-1.771,0-3.211,1.337-3.211,2.979c0,0.257,0.039,0.52,0.116,0.783c0.121,0.413-0.048,0.856-0.416,1.082
		c-0.368,0.226-0.84,0.178-1.155-0.116c-0.607-0.568-1.417-0.882-2.279-0.882c-1.771,0-3.211,1.336-3.211,2.979
		c0,0.648,0.226,1.268,0.651,1.791c0.286,0.352,0.286,0.854,0,1.206c-0.425,0.523-0.651,1.143-0.651,1.791
		c0,1.643,1.439,2.979,3.211,2.979c0.862,0,1.672-0.313,2.279-0.883c0.316-0.294,0.787-0.341,1.155-0.115
		c0.367,0.226,0.536,0.669,0.416,1.082c-0.077,0.264-0.116,0.526-0.116,0.783c0,1.642,1.441,2.977,3.211,2.977
		c1.159,0,2.231-0.584,2.801-1.525c0.219-0.361,0.649-0.535,1.06-0.429c0.409,0.107,0.699,0.472,0.711,0.895
		c0.05,1.622,1.458,2.893,3.207,2.893c0.527,0,0.955,0.428,0.955,0.956C64.849,26.475,64.421,26.902,63.894,26.902z"/>
	<path d="M47.097,52.816"/>
	<path d="M49.942,60.156c-2.591,0-4.706-2.069-4.782-4.641c-0.449,0.139-0.92,0.212-1.398,0.212c-2.638,0-4.784-2.146-4.784-4.784
		c0-0.462,0.064-0.912,0.19-1.345c-2.561-0.087-4.62-2.195-4.62-4.779c0-1.012,0.314-1.968,0.873-2.757
		c-1.788-0.694-3.058-2.433-3.058-4.461c0-1.28,0.521-2.479,1.383-3.356c-1.424-0.825-2.367-2.362-2.367-4.136
		c0-2.638,2.145-4.783,4.782-4.783c0.528,0,0.956,0.428,0.956,0.955c0,0.528-0.428,0.956-0.956,0.956
		c-1.583,0-2.872,1.288-2.872,2.872c0,1.567,1.229,2.827,2.796,2.867c0.47,0.012,0.861,0.364,0.923,0.831
		c0.061,0.466-0.227,0.907-0.677,1.04c-1.212,0.358-2.058,1.489-2.058,2.754c0,1.583,1.287,2.871,2.871,2.871
		c0.124,0,0.244-0.011,0.364-0.026c0.466-0.057,0.9,0.224,1.036,0.671c0.135,0.446-0.071,0.925-0.489,1.132
		c-0.984,0.49-1.596,1.476-1.596,2.57c0,1.585,1.289,2.873,2.872,2.873c0.452,0,0.889-0.106,1.297-0.314
		c0.42-0.214,0.932-0.089,1.207,0.293c0.276,0.381,0.234,0.904-0.099,1.236c-0.546,0.544-0.848,1.268-0.848,2.036
		c0,1.585,1.289,2.873,2.873,2.873c0.81,0,1.587-0.35,2.133-0.956c0.326-0.361,0.874-0.422,1.268-0.137
		c0.396,0.284,0.514,0.82,0.275,1.246c-0.241,0.428-0.37,0.912-0.37,1.404c0,1.583,1.289,2.871,2.873,2.871
		c0.667,0,1.291-0.223,1.809-0.64c0.408-0.335,1.011-0.271,1.344,0.139s0.27,1.012-0.139,1.344
		C52.106,59.776,51.037,60.156,49.942,60.156z"/>
	<path d="M82.033,26.405c-0.415,0-0.797-0.272-0.918-0.692c-0.146-0.507,0.149-1.036,0.655-1.182
		c12.727-3.651,22.927-13.296,23.028-13.393c0.381-0.365,0.985-0.352,1.351,0.03c0.363,0.382,0.35,0.986-0.031,1.351
		c-0.428,0.409-10.646,10.068-23.821,13.849C82.21,26.394,82.12,26.405,82.033,26.405z"/>
	<path d="M81.101,39.511c-1.105,0-2.172-0.568-2.825-1.6c-0.366-0.577-0.447-1.374-0.223-2.184c0.267-0.956,0.916-1.772,1.741-2.185
		c0.457-0.228,1.847-0.92,3.09-0.236c0.461,0.255,0.63,0.836,0.375,1.298c-0.254,0.463-0.835,0.631-1.297,0.376
		c-0.236-0.129-0.701-0.032-1.314,0.273c-0.345,0.171-0.634,0.549-0.754,0.986c-0.094,0.331-0.052,0.573-0.004,0.647
		c0.343,0.541,1.067,0.945,1.849,0.555c0.063-0.03,0.115-0.062,0.166-0.095c0.442-0.29,1.035-0.165,1.323,0.277
		c0.289,0.442,0.164,1.034-0.278,1.323c-0.116,0.074-0.236,0.144-0.363,0.207C82.105,39.396,81.6,39.511,81.101,39.511z"/>
	<path d="M77.536,40.447c-0.071,0-0.143-0.008-0.214-0.024c-0.515-0.118-0.836-0.632-0.717-1.146
		c0.648-2.813,1.793-4.468,1.839-4.537c0.305-0.432,0.898-0.537,1.331-0.234c0.432,0.302,0.538,0.896,0.236,1.328
		c-0.022,0.035-0.988,1.465-1.545,3.873C78.364,40.148,77.972,40.447,77.536,40.447z"/>
	<path d="M64.984,74.953c-0.451,0-0.895-0.075-1.326-0.241c-0.37-0.141-0.615-0.496-0.615-0.891v-3.737
		c0-0.527,0.428-0.956,0.956-0.956c0.527,0,0.955,0.429,0.955,0.956v2.962c0.022,0,0.045,0.002,0.067,0.002
		c2.497,0,6.163-4.148,7.354-5.752c0.314-0.426,0.913-0.513,1.337-0.199c0.423,0.313,0.513,0.912,0.198,1.338
		C73.369,69.163,68.948,74.953,64.984,74.953z"/>
	<path d="M66.484,68.818c-0.273,0-0.544-0.114-0.733-0.34c-0.34-0.403-0.287-1.006,0.116-1.347l2.382-2.003
		c0.406-0.34,1.009-0.286,1.346,0.117c0.34,0.402,0.289,1.007-0.115,1.346l-2.383,2.003C66.919,68.746,66.7,68.818,66.484,68.818z"
		/>
	<path d="M64.105,26.902c-0.528,0-0.955-0.428-0.955-0.955c0-0.528,0.427-0.956,0.955-0.956c1.749,0,3.158-1.271,3.206-2.893
		c0.014-0.423,0.303-0.787,0.712-0.895s0.842,0.067,1.061,0.429c0.57,0.941,1.644,1.525,2.801,1.525
		c1.771,0,3.212-1.335,3.212-2.977c0-0.257-0.039-0.52-0.117-0.783c-0.12-0.413,0.05-0.856,0.417-1.082s0.839-0.179,1.153,0.115
		c0.608,0.569,1.417,0.883,2.279,0.883c1.771,0,3.213-1.336,3.213-2.979c0-0.647-0.227-1.268-0.652-1.791
		c-0.287-0.352-0.287-0.854,0-1.206c0.426-0.524,0.652-1.144,0.652-1.791c0-1.643-1.441-2.979-3.213-2.979
		c-0.862,0-1.671,0.313-2.279,0.882c-0.314,0.294-0.786,0.342-1.153,0.116s-0.537-0.669-0.417-1.082
		c0.078-0.264,0.117-0.526,0.117-0.783c0-1.642-1.441-2.979-3.212-2.979c-1.157,0-2.23,0.586-2.801,1.526
		c-0.219,0.362-0.651,0.537-1.061,0.43s-0.698-0.472-0.712-0.896c-0.048-1.621-1.457-2.892-3.206-2.892
		c-0.528,0-0.955-0.428-0.955-0.956s0.427-0.955,0.955-0.955c2.077,0,3.855,1.157,4.659,2.849c0.884-0.647,1.979-1.018,3.12-1.018
		c2.572,0,4.709,1.82,5.069,4.184c0.59-0.223,1.224-0.338,1.875-0.338c2.826,0,5.124,2.193,5.124,4.89
		c0,0.849-0.227,1.665-0.66,2.394c0.434,0.729,0.66,1.546,0.66,2.395c0,2.696-2.298,4.89-5.124,4.89
		c-0.651,0-1.285-0.116-1.875-0.338c-0.36,2.361-2.497,4.182-5.069,4.182c-1.142,0-2.236-0.369-3.119-1.016
		C67.961,25.745,66.185,26.902,64.105,26.902z"/>
	<path d="M80.901,52.816"/>
	<path d="M78.058,60.156c-1.093,0-2.163-0.38-3.013-1.068c-0.409-0.332-0.472-0.935-0.139-1.344
		c0.332-0.409,0.934-0.474,1.344-0.139c0.518,0.417,1.141,0.64,1.808,0.64c1.585,0,2.873-1.288,2.873-2.871
		c0-0.492-0.127-0.977-0.368-1.404c-0.241-0.426-0.122-0.962,0.274-1.246c0.395-0.283,0.942-0.225,1.269,0.137
		c0.545,0.606,1.322,0.956,2.132,0.956c1.584,0,2.873-1.288,2.873-2.873c0-0.771-0.301-1.492-0.848-2.036
		c-0.333-0.332-0.376-0.855-0.1-1.236c0.276-0.382,0.787-0.507,1.207-0.293c0.408,0.208,0.846,0.314,1.296,0.314
		c1.584,0,2.873-1.288,2.873-2.873c0-1.095-0.612-2.08-1.596-2.57c-0.419-0.207-0.625-0.686-0.489-1.132
		c0.136-0.447,0.569-0.728,1.036-0.671c0.119,0.016,0.24,0.026,0.363,0.026c1.583,0,2.873-1.288,2.873-2.871
		c0-1.265-0.848-2.396-2.06-2.754c-0.449-0.133-0.737-0.574-0.676-1.04c0.06-0.467,0.452-0.819,0.922-0.831
		c1.568-0.04,2.797-1.3,2.797-2.867c0-1.584-1.288-2.872-2.871-2.872c-0.528,0-0.956-0.428-0.956-0.956
		c0-0.527,0.428-0.955,0.956-0.955c2.636,0,4.781,2.146,4.781,4.783c0,1.773-0.942,3.311-2.368,4.136
		c0.862,0.877,1.386,2.076,1.386,3.356c0,2.028-1.272,3.767-3.06,4.461c0.559,0.789,0.872,1.745,0.872,2.757
		c0,2.584-2.059,4.692-4.62,4.779c0.125,0.433,0.191,0.883,0.191,1.345c0,2.638-2.146,4.784-4.784,4.784
		c-0.478,0-0.947-0.073-1.397-0.212C82.765,58.087,80.647,60.156,78.058,60.156z"/>
</g>
</svg>
